<svg xmlns="http://www.w3.org/2000/svg" xmlns:xlink="http://www.w3.org/1999/xlink" width="1440" height="666" viewBox="0 0 1440 666"><defs><clipPath id="a"><rect width="1440" height="666" fill="none"/></clipPath></defs><g clip-path="url(#a)"><g transform="translate(0 -1692)"><path d="M9,0h2V20H9ZM34.134.84l1.732,1-10,17.321-1.732-1Zm-20,20,1.732,1-10,17.321-1.732-1ZM58.16,4.134l1,1.732-17.321,10-1-1.732Zm-40,40,1,1.732-17.321,10-1-1.732ZM80,9v2H60V9ZM20,69v2H0V69ZM99.321,14l-1,1.732L81,5.732,82,4Zm-80,80-1,1.732L1,85.732,2,84Zm96.546-75.84-1.732,1-10-17.321,1.732-1Zm-100,100-1.732,1-10-17.321,1.732-1ZM38.16,24.134l1,1.732-17.321,10-1-1.732ZM60,29v2H40V29Zm19.321,5-1,1.732L61,25.732,62,24Zm16.546,4.16-1.732,1-10-17.321,1.732-1ZM111,40h-2V20h2Zm3.134.84,1.732,1-10,17.321-1.732-1ZM40,49v2H20V49Zm19.321,5-1,1.732L41,45.732,42,44Zm16.546,4.16-1.732,1-10-17.321,1.732-1ZM91,60H89V40h2Zm3.134.84,1.732,1-10,17.321-1.732-1Zm24.026,3.294,1,1.732-17.321,10-1-1.732ZM39.321,74l-1,1.732L21,65.732,22,64Zm16.546,4.16-1.732,1-10-17.321,1.732-1ZM71,80H69V60h2Zm3.134.84,1.732,1-10,17.321-1.732-1ZM98.16,84.134l1,1.732-17.321,10-1-1.732ZM120,89v2H100V89ZM35.866,98.16l-1.732,1-10-17.321,1.732-1ZM51,100H49V80h2Zm3.134.84,1.732,1-10,17.321-1.732-1Zm24.026,3.294,1,1.732-17.321,10-1-1.732ZM100,109v2H80v-2Zm19.321,5-1,1.732-17.321-10L102,104ZM31,120H29V100h2Z" transform="translate(0 1692)" fill="#f7f7f7" fill-rule="evenodd"/><path d="M111,0h-2V20h2ZM85.866.84l-1.732,1,10,17.321,1.732-1Zm20,20-1.732,1,10,17.321,1.732-1ZM61.84,4.134l-1,1.732,17.321,10,1-1.732Zm40,40-1,1.732,17.321,10,1-1.732ZM40,9v2H60V9Zm60,60v2h20V69ZM20.679,14l1,1.732L39,5.732,38,4Zm80,80,1,1.732,17.321-10L118,84ZM4.134,18.16l1.732,1,10-17.321-1.732-1Zm100,100,1.732,1,10-17.321-1.732-1ZM81.84,24.134l-1,1.732,17.321,10,1-1.732ZM60,29v2H80V29ZM40.679,34l1,1.732L59,25.732,58,24ZM24.134,38.16l1.732,1,10-17.321-1.732-1ZM9,40h2V20H9Zm-3.134.84-1.732,1,10,17.321,1.732-1ZM80,49v2h20V49ZM60.679,54l1,1.732L79,45.732,78,44ZM44.134,58.16l1.732,1,10-17.321-1.732-1ZM29,60h2V40H29Zm-3.134.84-1.732,1,10,17.321,1.732-1ZM1.84,64.134l-1,1.732,17.321,10,1-1.732ZM80.679,74l1,1.732L99,65.732,98,64ZM64.134,78.16l1.732,1,10-17.321-1.732-1ZM49,80h2V60H49Zm-3.134.84-1.732,1,10,17.321,1.732-1ZM21.84,84.134l-1,1.732,17.321,10,1-1.732ZM0,89v2H20V89Zm84.134,9.16,1.732,1,10-17.321-1.732-1ZM69,100h2V80H69Zm-3.134.84-1.732,1,10,17.321,1.732-1ZM41.84,104.134l-1,1.732,17.321,10,1-1.732ZM20,109v2H40v-2ZM.679,114l1,1.732,17.321-10L18,104ZM89,120h2V100H89Z" transform="translate(127 1819)" fill="#f7f7f7" fill-rule="evenodd"/><path d="M9,120h2V100H9Zm25.134-.84,1.732-1-10-17.321-1.732,1Zm-20-20,1.732-1-10-17.321-1.732,1ZM58.16,115.866l1-1.732-17.321-10-1,1.732Zm-40-40,1-1.732-17.321-10-1,1.732ZM80,111v-2H60v2ZM20,51V49H0v2Zm79.321,55-1-1.732L81,114.268,82,116Zm-80-80-1-1.732L1,34.268,2,36Zm96.546,75.84-1.732-1-10,17.321,1.732,1Zm-100-100-1.732-1-10,17.321,1.732,1ZM38.16,95.866l1-1.732-17.321-10-1,1.732ZM60,91V89H40v2Zm19.321-5-1-1.732L61,94.268,62,96Zm16.546-4.16-1.732-1-10,17.321,1.732,1ZM111,80h-2v20h2Zm3.134-.84,1.732-1-10-17.321-1.732,1ZM40,71V69H20v2Zm19.321-5-1-1.732L41,74.268,42,76Zm16.546-4.16-1.732-1-10,17.321,1.732,1ZM91,60H89V80h2Zm3.134-.84,1.732-1-10-17.321-1.732,1Zm24.026-3.294,1-1.732-17.321-10-1,1.732ZM39.321,46l-1-1.732L21,54.268,22,56Zm16.546-4.16-1.732-1-10,17.321,1.732,1ZM71,40H69V60h2Zm3.134-.84,1.732-1-10-17.321-1.732,1ZM98.16,35.866l1-1.732-17.321-10-1,1.732ZM120,31V29H100v2ZM35.866,21.84l-1.732-1-10,17.321,1.732,1ZM51,20H49V40h2Zm3.134-.84,1.732-1L45.866.84l-1.732,1ZM78.16,15.866l1-1.732-17.321-10-1,1.732ZM100,11V9H80v2Zm19.321-5-1-1.732L101,14.268,102,16ZM31,0H29V20h2Z" transform="translate(0 1819)" fill="#f7f7f7" fill-rule="evenodd"/><path d="M111,120h-2V100h2Zm-25.134-.84-1.732-1,10-17.321,1.732,1Zm20-20-1.732-1,10-17.321,1.732,1ZM61.84,115.866l-1-1.732,17.321-10,1,1.732Zm40-40-1-1.732,17.321-10,1,1.732ZM40,111v-2H60v2Zm60-60V49h20v2ZM20.679,106l1-1.732,17.321,10L38,116Zm80-80,1-1.732,17.321,10L118,36ZM4.134,101.84l1.732-1,10,17.321-1.732,1Zm100-100,1.732-1,10,17.321-1.732,1ZM81.84,95.866l-1-1.732,17.321-10,1,1.732ZM60,91V89H80v2ZM40.679,86l1-1.732L59,94.268,58,96ZM24.134,81.84l1.732-1,10,17.321-1.732,1ZM9,80h2v20H9Zm-3.134-.84-1.732-1,10-17.321,1.732,1ZM80,71V69h20v2ZM60.679,66l1-1.732L79,74.268,78,76ZM44.134,61.84l1.732-1,10,17.321-1.732,1ZM29,60h2V80H29Zm-3.134-.84-1.732-1,10-17.321,1.732,1ZM1.84,55.866l-1-1.732,17.321-10,1,1.732ZM80.679,46l1-1.732L99,54.268,98,56ZM64.134,41.84l1.732-1,10,17.321-1.732,1ZM49,40h2V60H49Zm-3.134-.84-1.732-1,10-17.321,1.732,1ZM21.84,35.866l-1-1.732,17.321-10,1,1.732ZM0,31V29H20v2Zm84.134-9.16,1.732-1,10,17.321-1.732,1ZM69,20h2V40H69Zm-3.134-.84-1.732-1L74.134.84l1.732,1ZM41.84,15.866l-1-1.732,17.321-10,1,1.732ZM20,11V9H40v2ZM.679,6l1-1.732L19,14.268,18,16ZM89,0h2V20H89Z" transform="translate(127 1692)" fill="#f7f7f7" fill-rule="evenodd"/></g><g transform="translate(254 -1692)"><path d="M9,0h2V20H9ZM34.134.84l1.732,1-10,17.321-1.732-1Zm-20,20,1.732,1-10,17.321-1.732-1ZM58.16,4.134l1,1.732-17.321,10-1-1.732Zm-40,40,1,1.732-17.321,10-1-1.732ZM80,9v2H60V9ZM20,69v2H0V69ZM99.321,14l-1,1.732L81,5.732,82,4Zm-80,80-1,1.732L1,85.732,2,84Zm96.546-75.84-1.732,1-10-17.321,1.732-1Zm-100,100-1.732,1-10-17.321,1.732-1ZM38.16,24.134l1,1.732-17.321,10-1-1.732ZM60,29v2H40V29Zm19.321,5-1,1.732L61,25.732,62,24Zm16.546,4.16-1.732,1-10-17.321,1.732-1ZM111,40h-2V20h2Zm3.134.84,1.732,1-10,17.321-1.732-1ZM40,49v2H20V49Zm19.321,5-1,1.732L41,45.732,42,44Zm16.546,4.16-1.732,1-10-17.321,1.732-1ZM91,60H89V40h2Zm3.134.84,1.732,1-10,17.321-1.732-1Zm24.026,3.294,1,1.732-17.321,10-1-1.732ZM39.321,74l-1,1.732L21,65.732,22,64Zm16.546,4.16-1.732,1-10-17.321,1.732-1ZM71,80H69V60h2Zm3.134.84,1.732,1-10,17.321-1.732-1ZM98.16,84.134l1,1.732-17.321,10-1-1.732ZM120,89v2H100V89ZM35.866,98.16l-1.732,1-10-17.321,1.732-1ZM51,100H49V80h2Zm3.134.84,1.732,1-10,17.321-1.732-1Zm24.026,3.294,1,1.732-17.321,10-1-1.732ZM100,109v2H80v-2Zm19.321,5-1,1.732-17.321-10L102,104ZM31,120H29V100h2Z" transform="translate(0 1692)" fill="#f7f7f7" fill-rule="evenodd"/><path d="M111,0h-2V20h2ZM85.866.84l-1.732,1,10,17.321,1.732-1Zm20,20-1.732,1,10,17.321,1.732-1ZM61.84,4.134l-1,1.732,17.321,10,1-1.732Zm40,40-1,1.732,17.321,10,1-1.732ZM40,9v2H60V9Zm60,60v2h20V69ZM20.679,14l1,1.732L39,5.732,38,4Zm80,80,1,1.732,17.321-10L118,84ZM4.134,18.16l1.732,1,10-17.321-1.732-1Zm100,100,1.732,1,10-17.321-1.732-1ZM81.84,24.134l-1,1.732,17.321,10,1-1.732ZM60,29v2H80V29ZM40.679,34l1,1.732L59,25.732,58,24ZM24.134,38.16l1.732,1,10-17.321-1.732-1ZM9,40h2V20H9Zm-3.134.84-1.732,1,10,17.321,1.732-1ZM80,49v2h20V49ZM60.679,54l1,1.732L79,45.732,78,44ZM44.134,58.16l1.732,1,10-17.321-1.732-1ZM29,60h2V40H29Zm-3.134.84-1.732,1,10,17.321,1.732-1ZM1.84,64.134l-1,1.732,17.321,10,1-1.732ZM80.679,74l1,1.732L99,65.732,98,64ZM64.134,78.16l1.732,1,10-17.321-1.732-1ZM49,80h2V60H49Zm-3.134.84-1.732,1,10,17.321,1.732-1ZM21.84,84.134l-1,1.732,17.321,10,1-1.732ZM0,89v2H20V89Zm84.134,9.16,1.732,1,10-17.321-1.732-1ZM69,100h2V80H69Zm-3.134.84-1.732,1,10,17.321,1.732-1ZM41.84,104.134l-1,1.732,17.321,10,1-1.732ZM20,109v2H40v-2ZM.679,114l1,1.732,17.321-10L18,104ZM89,120h2V100H89Z" transform="translate(127 1819)" fill="#f7f7f7" fill-rule="evenodd"/><path d="M9,120h2V100H9Zm25.134-.84,1.732-1-10-17.321-1.732,1Zm-20-20,1.732-1-10-17.321-1.732,1ZM58.16,115.866l1-1.732-17.321-10-1,1.732Zm-40-40,1-1.732-17.321-10-1,1.732ZM80,111v-2H60v2ZM20,51V49H0v2Zm79.321,55-1-1.732L81,114.268,82,116Zm-80-80-1-1.732L1,34.268,2,36Zm96.546,75.84-1.732-1-10,17.321,1.732,1Zm-100-100-1.732-1-10,17.321,1.732,1ZM38.16,95.866l1-1.732-17.321-10-1,1.732ZM60,91V89H40v2Zm19.321-5-1-1.732L61,94.268,62,96Zm16.546-4.16-1.732-1-10,17.321,1.732,1ZM111,80h-2v20h2Zm3.134-.84,1.732-1-10-17.321-1.732,1ZM40,71V69H20v2Zm19.321-5-1-1.732L41,74.268,42,76Zm16.546-4.16-1.732-1-10,17.321,1.732,1ZM91,60H89V80h2Zm3.134-.84,1.732-1-10-17.321-1.732,1Zm24.026-3.294,1-1.732-17.321-10-1,1.732ZM39.321,46l-1-1.732L21,54.268,22,56Zm16.546-4.16-1.732-1-10,17.321,1.732,1ZM71,40H69V60h2Zm3.134-.84,1.732-1-10-17.321-1.732,1ZM98.16,35.866l1-1.732-17.321-10-1,1.732ZM120,31V29H100v2ZM35.866,21.84l-1.732-1-10,17.321,1.732,1ZM51,20H49V40h2Zm3.134-.84,1.732-1L45.866.84l-1.732,1ZM78.16,15.866l1-1.732-17.321-10-1,1.732ZM100,11V9H80v2Zm19.321-5-1-1.732L101,14.268,102,16ZM31,0H29V20h2Z" transform="translate(0 1819)" fill="#f7f7f7" fill-rule="evenodd"/><path d="M111,120h-2V100h2Zm-25.134-.84-1.732-1,10-17.321,1.732,1Zm20-20-1.732-1,10-17.321,1.732,1ZM61.84,115.866l-1-1.732,17.321-10,1,1.732Zm40-40-1-1.732,17.321-10,1,1.732ZM40,111v-2H60v2Zm60-60V49h20v2ZM20.679,106l1-1.732,17.321,10L38,116Zm80-80,1-1.732,17.321,10L118,36ZM4.134,101.84l1.732-1,10,17.321-1.732,1Zm100-100,1.732-1,10,17.321-1.732,1ZM81.84,95.866l-1-1.732,17.321-10,1,1.732ZM60,91V89H80v2ZM40.679,86l1-1.732L59,94.268,58,96ZM24.134,81.84l1.732-1,10,17.321-1.732,1ZM9,80h2v20H9Zm-3.134-.84-1.732-1,10-17.321,1.732,1ZM80,71V69h20v2ZM60.679,66l1-1.732L79,74.268,78,76ZM44.134,61.84l1.732-1,10,17.321-1.732,1ZM29,60h2V80H29Zm-3.134-.84-1.732-1,10-17.321,1.732,1ZM1.84,55.866l-1-1.732,17.321-10,1,1.732ZM80.679,46l1-1.732L99,54.268,98,56ZM64.134,41.84l1.732-1,10,17.321-1.732,1ZM49,40h2V60H49Zm-3.134-.84-1.732-1,10-17.321,1.732,1ZM21.84,35.866l-1-1.732,17.321-10,1,1.732ZM0,31V29H20v2Zm84.134-9.16,1.732-1,10,17.321-1.732,1ZM69,20h2V40H69Zm-3.134-.84-1.732-1L74.134.84l1.732,1ZM41.84,15.866l-1-1.732,17.321-10,1,1.732ZM20,11V9H40v2ZM.679,6l1-1.732L19,14.268,18,16ZM89,0h2V20H89Z" transform="translate(127 1692)" fill="#f7f7f7" fill-rule="evenodd"/></g><g transform="translate(508 -1692)"><path d="M9,0h2V20H9ZM34.134.84l1.732,1-10,17.321-1.732-1Zm-20,20,1.732,1-10,17.321-1.732-1ZM58.16,4.134l1,1.732-17.321,10-1-1.732Zm-40,40,1,1.732-17.321,10-1-1.732ZM80,9v2H60V9ZM20,69v2H0V69ZM99.321,14l-1,1.732L81,5.732,82,4Zm-80,80-1,1.732L1,85.732,2,84Zm96.546-75.84-1.732,1-10-17.321,1.732-1Zm-100,100-1.732,1-10-17.321,1.732-1ZM38.16,24.134l1,1.732-17.321,10-1-1.732ZM60,29v2H40V29Zm19.321,5-1,1.732L61,25.732,62,24Zm16.546,4.16-1.732,1-10-17.321,1.732-1ZM111,40h-2V20h2Zm3.134.84,1.732,1-10,17.321-1.732-1ZM40,49v2H20V49Zm19.321,5-1,1.732L41,45.732,42,44Zm16.546,4.16-1.732,1-10-17.321,1.732-1ZM91,60H89V40h2Zm3.134.84,1.732,1-10,17.321-1.732-1Zm24.026,3.294,1,1.732-17.321,10-1-1.732ZM39.321,74l-1,1.732L21,65.732,22,64Zm16.546,4.16-1.732,1-10-17.321,1.732-1ZM71,80H69V60h2Zm3.134.84,1.732,1-10,17.321-1.732-1ZM98.16,84.134l1,1.732-17.321,10-1-1.732ZM120,89v2H100V89ZM35.866,98.16l-1.732,1-10-17.321,1.732-1ZM51,100H49V80h2Zm3.134.84,1.732,1-10,17.321-1.732-1Zm24.026,3.294,1,1.732-17.321,10-1-1.732ZM100,109v2H80v-2Zm19.321,5-1,1.732-17.321-10L102,104ZM31,120H29V100h2Z" transform="translate(0 1692)" fill="#f7f7f7" fill-rule="evenodd"/><path d="M111,0h-2V20h2ZM85.866.84l-1.732,1,10,17.321,1.732-1Zm20,20-1.732,1,10,17.321,1.732-1ZM61.84,4.134l-1,1.732,17.321,10,1-1.732Zm40,40-1,1.732,17.321,10,1-1.732ZM40,9v2H60V9Zm60,60v2h20V69ZM20.679,14l1,1.732L39,5.732,38,4Zm80,80,1,1.732,17.321-10L118,84ZM4.134,18.16l1.732,1,10-17.321-1.732-1Zm100,100,1.732,1,10-17.321-1.732-1ZM81.84,24.134l-1,1.732,17.321,10,1-1.732ZM60,29v2H80V29ZM40.679,34l1,1.732L59,25.732,58,24ZM24.134,38.16l1.732,1,10-17.321-1.732-1ZM9,40h2V20H9Zm-3.134.84-1.732,1,10,17.321,1.732-1ZM80,49v2h20V49ZM60.679,54l1,1.732L79,45.732,78,44ZM44.134,58.16l1.732,1,10-17.321-1.732-1ZM29,60h2V40H29Zm-3.134.84-1.732,1,10,17.321,1.732-1ZM1.84,64.134l-1,1.732,17.321,10,1-1.732ZM80.679,74l1,1.732L99,65.732,98,64ZM64.134,78.16l1.732,1,10-17.321-1.732-1ZM49,80h2V60H49Zm-3.134.84-1.732,1,10,17.321,1.732-1ZM21.84,84.134l-1,1.732,17.321,10,1-1.732ZM0,89v2H20V89Zm84.134,9.16,1.732,1,10-17.321-1.732-1ZM69,100h2V80H69Zm-3.134.84-1.732,1,10,17.321,1.732-1ZM41.84,104.134l-1,1.732,17.321,10,1-1.732ZM20,109v2H40v-2ZM.679,114l1,1.732,17.321-10L18,104ZM89,120h2V100H89Z" transform="translate(127 1819)" fill="#f7f7f7" fill-rule="evenodd"/><path d="M9,120h2V100H9Zm25.134-.84,1.732-1-10-17.321-1.732,1Zm-20-20,1.732-1-10-17.321-1.732,1ZM58.16,115.866l1-1.732-17.321-10-1,1.732Zm-40-40,1-1.732-17.321-10-1,1.732ZM80,111v-2H60v2ZM20,51V49H0v2Zm79.321,55-1-1.732L81,114.268,82,116Zm-80-80-1-1.732L1,34.268,2,36Zm96.546,75.84-1.732-1-10,17.321,1.732,1Zm-100-100-1.732-1-10,17.321,1.732,1ZM38.16,95.866l1-1.732-17.321-10-1,1.732ZM60,91V89H40v2Zm19.321-5-1-1.732L61,94.268,62,96Zm16.546-4.16-1.732-1-10,17.321,1.732,1ZM111,80h-2v20h2Zm3.134-.84,1.732-1-10-17.321-1.732,1ZM40,71V69H20v2Zm19.321-5-1-1.732L41,74.268,42,76Zm16.546-4.16-1.732-1-10,17.321,1.732,1ZM91,60H89V80h2Zm3.134-.84,1.732-1-10-17.321-1.732,1Zm24.026-3.294,1-1.732-17.321-10-1,1.732ZM39.321,46l-1-1.732L21,54.268,22,56Zm16.546-4.16-1.732-1-10,17.321,1.732,1ZM71,40H69V60h2Zm3.134-.84,1.732-1-10-17.321-1.732,1ZM98.16,35.866l1-1.732-17.321-10-1,1.732ZM120,31V29H100v2ZM35.866,21.84l-1.732-1-10,17.321,1.732,1ZM51,20H49V40h2Zm3.134-.84,1.732-1L45.866.84l-1.732,1ZM78.16,15.866l1-1.732-17.321-10-1,1.732ZM100,11V9H80v2Zm19.321-5-1-1.732L101,14.268,102,16ZM31,0H29V20h2Z" transform="translate(0 1819)" fill="#f7f7f7" fill-rule="evenodd"/><path d="M111,120h-2V100h2Zm-25.134-.84-1.732-1,10-17.321,1.732,1Zm20-20-1.732-1,10-17.321,1.732,1ZM61.84,115.866l-1-1.732,17.321-10,1,1.732Zm40-40-1-1.732,17.321-10,1,1.732ZM40,111v-2H60v2Zm60-60V49h20v2ZM20.679,106l1-1.732,17.321,10L38,116Zm80-80,1-1.732,17.321,10L118,36ZM4.134,101.84l1.732-1,10,17.321-1.732,1Zm100-100,1.732-1,10,17.321-1.732,1ZM81.84,95.866l-1-1.732,17.321-10,1,1.732ZM60,91V89H80v2ZM40.679,86l1-1.732L59,94.268,58,96ZM24.134,81.84l1.732-1,10,17.321-1.732,1ZM9,80h2v20H9Zm-3.134-.84-1.732-1,10-17.321,1.732,1ZM80,71V69h20v2ZM60.679,66l1-1.732L79,74.268,78,76ZM44.134,61.84l1.732-1,10,17.321-1.732,1ZM29,60h2V80H29Zm-3.134-.84-1.732-1,10-17.321,1.732,1ZM1.84,55.866l-1-1.732,17.321-10,1,1.732ZM80.679,46l1-1.732L99,54.268,98,56ZM64.134,41.84l1.732-1,10,17.321-1.732,1ZM49,40h2V60H49Zm-3.134-.84-1.732-1,10-17.321,1.732,1ZM21.84,35.866l-1-1.732,17.321-10,1,1.732ZM0,31V29H20v2Zm84.134-9.16,1.732-1,10,17.321-1.732,1ZM69,20h2V40H69Zm-3.134-.84-1.732-1L74.134.84l1.732,1ZM41.84,15.866l-1-1.732,17.321-10,1,1.732ZM20,11V9H40v2ZM.679,6l1-1.732L19,14.268,18,16ZM89,0h2V20H89Z" transform="translate(127 1692)" fill="#f7f7f7" fill-rule="evenodd"/></g><g transform="translate(762 -1692)"><path d="M9,0h2V20H9ZM34.134.84l1.732,1-10,17.321-1.732-1Zm-20,20,1.732,1-10,17.321-1.732-1ZM58.16,4.134l1,1.732-17.321,10-1-1.732Zm-40,40,1,1.732-17.321,10-1-1.732ZM80,9v2H60V9ZM20,69v2H0V69ZM99.321,14l-1,1.732L81,5.732,82,4Zm-80,80-1,1.732L1,85.732,2,84Zm96.546-75.84-1.732,1-10-17.321,1.732-1Zm-100,100-1.732,1-10-17.321,1.732-1ZM38.16,24.134l1,1.732-17.321,10-1-1.732ZM60,29v2H40V29Zm19.321,5-1,1.732L61,25.732,62,24Zm16.546,4.16-1.732,1-10-17.321,1.732-1ZM111,40h-2V20h2Zm3.134.84,1.732,1-10,17.321-1.732-1ZM40,49v2H20V49Zm19.321,5-1,1.732L41,45.732,42,44Zm16.546,4.16-1.732,1-10-17.321,1.732-1ZM91,60H89V40h2Zm3.134.84,1.732,1-10,17.321-1.732-1Zm24.026,3.294,1,1.732-17.321,10-1-1.732ZM39.321,74l-1,1.732L21,65.732,22,64Zm16.546,4.16-1.732,1-10-17.321,1.732-1ZM71,80H69V60h2Zm3.134.84,1.732,1-10,17.321-1.732-1ZM98.16,84.134l1,1.732-17.321,10-1-1.732ZM120,89v2H100V89ZM35.866,98.16l-1.732,1-10-17.321,1.732-1ZM51,100H49V80h2Zm3.134.84,1.732,1-10,17.321-1.732-1Zm24.026,3.294,1,1.732-17.321,10-1-1.732ZM100,109v2H80v-2Zm19.321,5-1,1.732-17.321-10L102,104ZM31,120H29V100h2Z" transform="translate(0 1692)" fill="#f7f7f7" fill-rule="evenodd"/><path d="M111,0h-2V20h2ZM85.866.84l-1.732,1,10,17.321,1.732-1Zm20,20-1.732,1,10,17.321,1.732-1ZM61.84,4.134l-1,1.732,17.321,10,1-1.732Zm40,40-1,1.732,17.321,10,1-1.732ZM40,9v2H60V9Zm60,60v2h20V69ZM20.679,14l1,1.732L39,5.732,38,4Zm80,80,1,1.732,17.321-10L118,84ZM4.134,18.16l1.732,1,10-17.321-1.732-1Zm100,100,1.732,1,10-17.321-1.732-1ZM81.84,24.134l-1,1.732,17.321,10,1-1.732ZM60,29v2H80V29ZM40.679,34l1,1.732L59,25.732,58,24ZM24.134,38.16l1.732,1,10-17.321-1.732-1ZM9,40h2V20H9Zm-3.134.84-1.732,1,10,17.321,1.732-1ZM80,49v2h20V49ZM60.679,54l1,1.732L79,45.732,78,44ZM44.134,58.16l1.732,1,10-17.321-1.732-1ZM29,60h2V40H29Zm-3.134.84-1.732,1,10,17.321,1.732-1ZM1.84,64.134l-1,1.732,17.321,10,1-1.732ZM80.679,74l1,1.732L99,65.732,98,64ZM64.134,78.16l1.732,1,10-17.321-1.732-1ZM49,80h2V60H49Zm-3.134.84-1.732,1,10,17.321,1.732-1ZM21.84,84.134l-1,1.732,17.321,10,1-1.732ZM0,89v2H20V89Zm84.134,9.16,1.732,1,10-17.321-1.732-1ZM69,100h2V80H69Zm-3.134.84-1.732,1,10,17.321,1.732-1ZM41.84,104.134l-1,1.732,17.321,10,1-1.732ZM20,109v2H40v-2ZM.679,114l1,1.732,17.321-10L18,104ZM89,120h2V100H89Z" transform="translate(127 1819)" fill="#f7f7f7" fill-rule="evenodd"/><path d="M9,120h2V100H9Zm25.134-.84,1.732-1-10-17.321-1.732,1Zm-20-20,1.732-1-10-17.321-1.732,1ZM58.16,115.866l1-1.732-17.321-10-1,1.732Zm-40-40,1-1.732-17.321-10-1,1.732ZM80,111v-2H60v2ZM20,51V49H0v2Zm79.321,55-1-1.732L81,114.268,82,116Zm-80-80-1-1.732L1,34.268,2,36Zm96.546,75.84-1.732-1-10,17.321,1.732,1Zm-100-100-1.732-1-10,17.321,1.732,1ZM38.16,95.866l1-1.732-17.321-10-1,1.732ZM60,91V89H40v2Zm19.321-5-1-1.732L61,94.268,62,96Zm16.546-4.16-1.732-1-10,17.321,1.732,1ZM111,80h-2v20h2Zm3.134-.84,1.732-1-10-17.321-1.732,1ZM40,71V69H20v2Zm19.321-5-1-1.732L41,74.268,42,76Zm16.546-4.16-1.732-1-10,17.321,1.732,1ZM91,60H89V80h2Zm3.134-.84,1.732-1-10-17.321-1.732,1Zm24.026-3.294,1-1.732-17.321-10-1,1.732ZM39.321,46l-1-1.732L21,54.268,22,56Zm16.546-4.16-1.732-1-10,17.321,1.732,1ZM71,40H69V60h2Zm3.134-.84,1.732-1-10-17.321-1.732,1ZM98.16,35.866l1-1.732-17.321-10-1,1.732ZM120,31V29H100v2ZM35.866,21.84l-1.732-1-10,17.321,1.732,1ZM51,20H49V40h2Zm3.134-.84,1.732-1L45.866.84l-1.732,1ZM78.16,15.866l1-1.732-17.321-10-1,1.732ZM100,11V9H80v2Zm19.321-5-1-1.732L101,14.268,102,16ZM31,0H29V20h2Z" transform="translate(0 1819)" fill="#f7f7f7" fill-rule="evenodd"/><path d="M111,120h-2V100h2Zm-25.134-.84-1.732-1,10-17.321,1.732,1Zm20-20-1.732-1,10-17.321,1.732,1ZM61.84,115.866l-1-1.732,17.321-10,1,1.732Zm40-40-1-1.732,17.321-10,1,1.732ZM40,111v-2H60v2Zm60-60V49h20v2ZM20.679,106l1-1.732,17.321,10L38,116Zm80-80,1-1.732,17.321,10L118,36ZM4.134,101.84l1.732-1,10,17.321-1.732,1Zm100-100,1.732-1,10,17.321-1.732,1ZM81.84,95.866l-1-1.732,17.321-10,1,1.732ZM60,91V89H80v2ZM40.679,86l1-1.732L59,94.268,58,96ZM24.134,81.84l1.732-1,10,17.321-1.732,1ZM9,80h2v20H9Zm-3.134-.84-1.732-1,10-17.321,1.732,1ZM80,71V69h20v2ZM60.679,66l1-1.732L79,74.268,78,76ZM44.134,61.84l1.732-1,10,17.321-1.732,1ZM29,60h2V80H29Zm-3.134-.84-1.732-1,10-17.321,1.732,1ZM1.84,55.866l-1-1.732,17.321-10,1,1.732ZM80.679,46l1-1.732L99,54.268,98,56ZM64.134,41.84l1.732-1,10,17.321-1.732,1ZM49,40h2V60H49Zm-3.134-.84-1.732-1,10-17.321,1.732,1ZM21.84,35.866l-1-1.732,17.321-10,1,1.732ZM0,31V29H20v2Zm84.134-9.16,1.732-1,10,17.321-1.732,1ZM69,20h2V40H69Zm-3.134-.84-1.732-1L74.134.84l1.732,1ZM41.84,15.866l-1-1.732,17.321-10,1,1.732ZM20,11V9H40v2ZM.679,6l1-1.732L19,14.268,18,16ZM89,0h2V20H89Z" transform="translate(127 1692)" fill="#f7f7f7" fill-rule="evenodd"/></g><g transform="translate(1016 -1692)"><path d="M9,0h2V20H9ZM34.134.84l1.732,1-10,17.321-1.732-1Zm-20,20,1.732,1-10,17.321-1.732-1ZM58.16,4.134l1,1.732-17.321,10-1-1.732Zm-40,40,1,1.732-17.321,10-1-1.732ZM80,9v2H60V9ZM20,69v2H0V69ZM99.321,14l-1,1.732L81,5.732,82,4Zm-80,80-1,1.732L1,85.732,2,84Zm96.546-75.84-1.732,1-10-17.321,1.732-1Zm-100,100-1.732,1-10-17.321,1.732-1ZM38.16,24.134l1,1.732-17.321,10-1-1.732ZM60,29v2H40V29Zm19.321,5-1,1.732L61,25.732,62,24Zm16.546,4.16-1.732,1-10-17.321,1.732-1ZM111,40h-2V20h2Zm3.134.84,1.732,1-10,17.321-1.732-1ZM40,49v2H20V49Zm19.321,5-1,1.732L41,45.732,42,44Zm16.546,4.16-1.732,1-10-17.321,1.732-1ZM91,60H89V40h2Zm3.134.84,1.732,1-10,17.321-1.732-1Zm24.026,3.294,1,1.732-17.321,10-1-1.732ZM39.321,74l-1,1.732L21,65.732,22,64Zm16.546,4.16-1.732,1-10-17.321,1.732-1ZM71,80H69V60h2Zm3.134.84,1.732,1-10,17.321-1.732-1ZM98.16,84.134l1,1.732-17.321,10-1-1.732ZM120,89v2H100V89ZM35.866,98.16l-1.732,1-10-17.321,1.732-1ZM51,100H49V80h2Zm3.134.84,1.732,1-10,17.321-1.732-1Zm24.026,3.294,1,1.732-17.321,10-1-1.732ZM100,109v2H80v-2Zm19.321,5-1,1.732-17.321-10L102,104ZM31,120H29V100h2Z" transform="translate(0 1692)" fill="#f7f7f7" fill-rule="evenodd"/><path d="M111,0h-2V20h2ZM85.866.84l-1.732,1,10,17.321,1.732-1Zm20,20-1.732,1,10,17.321,1.732-1ZM61.84,4.134l-1,1.732,17.321,10,1-1.732Zm40,40-1,1.732,17.321,10,1-1.732ZM40,9v2H60V9Zm60,60v2h20V69ZM20.679,14l1,1.732L39,5.732,38,4Zm80,80,1,1.732,17.321-10L118,84ZM4.134,18.16l1.732,1,10-17.321-1.732-1Zm100,100,1.732,1,10-17.321-1.732-1ZM81.84,24.134l-1,1.732,17.321,10,1-1.732ZM60,29v2H80V29ZM40.679,34l1,1.732L59,25.732,58,24ZM24.134,38.16l1.732,1,10-17.321-1.732-1ZM9,40h2V20H9Zm-3.134.84-1.732,1,10,17.321,1.732-1ZM80,49v2h20V49ZM60.679,54l1,1.732L79,45.732,78,44ZM44.134,58.16l1.732,1,10-17.321-1.732-1ZM29,60h2V40H29Zm-3.134.84-1.732,1,10,17.321,1.732-1ZM1.84,64.134l-1,1.732,17.321,10,1-1.732ZM80.679,74l1,1.732L99,65.732,98,64ZM64.134,78.16l1.732,1,10-17.321-1.732-1ZM49,80h2V60H49Zm-3.134.84-1.732,1,10,17.321,1.732-1ZM21.84,84.134l-1,1.732,17.321,10,1-1.732ZM0,89v2H20V89Zm84.134,9.16,1.732,1,10-17.321-1.732-1ZM69,100h2V80H69Zm-3.134.84-1.732,1,10,17.321,1.732-1ZM41.84,104.134l-1,1.732,17.321,10,1-1.732ZM20,109v2H40v-2ZM.679,114l1,1.732,17.321-10L18,104ZM89,120h2V100H89Z" transform="translate(127 1819)" fill="#f7f7f7" fill-rule="evenodd"/><path d="M9,120h2V100H9Zm25.134-.84,1.732-1-10-17.321-1.732,1Zm-20-20,1.732-1-10-17.321-1.732,1ZM58.16,115.866l1-1.732-17.321-10-1,1.732Zm-40-40,1-1.732-17.321-10-1,1.732ZM80,111v-2H60v2ZM20,51V49H0v2Zm79.321,55-1-1.732L81,114.268,82,116Zm-80-80-1-1.732L1,34.268,2,36Zm96.546,75.84-1.732-1-10,17.321,1.732,1Zm-100-100-1.732-1-10,17.321,1.732,1ZM38.16,95.866l1-1.732-17.321-10-1,1.732ZM60,91V89H40v2Zm19.321-5-1-1.732L61,94.268,62,96Zm16.546-4.16-1.732-1-10,17.321,1.732,1ZM111,80h-2v20h2Zm3.134-.84,1.732-1-10-17.321-1.732,1ZM40,71V69H20v2Zm19.321-5-1-1.732L41,74.268,42,76Zm16.546-4.16-1.732-1-10,17.321,1.732,1ZM91,60H89V80h2Zm3.134-.84,1.732-1-10-17.321-1.732,1Zm24.026-3.294,1-1.732-17.321-10-1,1.732ZM39.321,46l-1-1.732L21,54.268,22,56Zm16.546-4.16-1.732-1-10,17.321,1.732,1ZM71,40H69V60h2Zm3.134-.84,1.732-1-10-17.321-1.732,1ZM98.16,35.866l1-1.732-17.321-10-1,1.732ZM120,31V29H100v2ZM35.866,21.84l-1.732-1-10,17.321,1.732,1ZM51,20H49V40h2Zm3.134-.84,1.732-1L45.866.84l-1.732,1ZM78.16,15.866l1-1.732-17.321-10-1,1.732ZM100,11V9H80v2Zm19.321-5-1-1.732L101,14.268,102,16ZM31,0H29V20h2Z" transform="translate(0 1819)" fill="#f7f7f7" fill-rule="evenodd"/><path d="M111,120h-2V100h2Zm-25.134-.84-1.732-1,10-17.321,1.732,1Zm20-20-1.732-1,10-17.321,1.732,1ZM61.84,115.866l-1-1.732,17.321-10,1,1.732Zm40-40-1-1.732,17.321-10,1,1.732ZM40,111v-2H60v2Zm60-60V49h20v2ZM20.679,106l1-1.732,17.321,10L38,116Zm80-80,1-1.732,17.321,10L118,36ZM4.134,101.84l1.732-1,10,17.321-1.732,1Zm100-100,1.732-1,10,17.321-1.732,1ZM81.84,95.866l-1-1.732,17.321-10,1,1.732ZM60,91V89H80v2ZM40.679,86l1-1.732L59,94.268,58,96ZM24.134,81.84l1.732-1,10,17.321-1.732,1ZM9,80h2v20H9Zm-3.134-.84-1.732-1,10-17.321,1.732,1ZM80,71V69h20v2ZM60.679,66l1-1.732L79,74.268,78,76ZM44.134,61.84l1.732-1,10,17.321-1.732,1ZM29,60h2V80H29Zm-3.134-.84-1.732-1,10-17.321,1.732,1ZM1.84,55.866l-1-1.732,17.321-10,1,1.732ZM80.679,46l1-1.732L99,54.268,98,56ZM64.134,41.84l1.732-1,10,17.321-1.732,1ZM49,40h2V60H49Zm-3.134-.84-1.732-1,10-17.321,1.732,1ZM21.84,35.866l-1-1.732,17.321-10,1,1.732ZM0,31V29H20v2Zm84.134-9.16,1.732-1,10,17.321-1.732,1ZM69,20h2V40H69Zm-3.134-.84-1.732-1L74.134.84l1.732,1ZM41.84,15.866l-1-1.732,17.321-10,1,1.732ZM20,11V9H40v2ZM.679,6l1-1.732L19,14.268,18,16ZM89,0h2V20H89Z" transform="translate(127 1692)" fill="#f7f7f7" fill-rule="evenodd"/></g><g transform="translate(1270 -1692)"><path d="M9,0h2V20H9ZM34.134.84l1.732,1-10,17.321-1.732-1Zm-20,20,1.732,1-10,17.321-1.732-1ZM58.16,4.134l1,1.732-17.321,10-1-1.732Zm-40,40,1,1.732-17.321,10-1-1.732ZM80,9v2H60V9ZM20,69v2H0V69ZM99.321,14l-1,1.732L81,5.732,82,4Zm-80,80-1,1.732L1,85.732,2,84Zm96.546-75.84-1.732,1-10-17.321,1.732-1Zm-100,100-1.732,1-10-17.321,1.732-1ZM38.16,24.134l1,1.732-17.321,10-1-1.732ZM60,29v2H40V29Zm19.321,5-1,1.732L61,25.732,62,24Zm16.546,4.16-1.732,1-10-17.321,1.732-1ZM111,40h-2V20h2Zm3.134.84,1.732,1-10,17.321-1.732-1ZM40,49v2H20V49Zm19.321,5-1,1.732L41,45.732,42,44Zm16.546,4.16-1.732,1-10-17.321,1.732-1ZM91,60H89V40h2Zm3.134.84,1.732,1-10,17.321-1.732-1Zm24.026,3.294,1,1.732-17.321,10-1-1.732ZM39.321,74l-1,1.732L21,65.732,22,64Zm16.546,4.16-1.732,1-10-17.321,1.732-1ZM71,80H69V60h2Zm3.134.84,1.732,1-10,17.321-1.732-1ZM98.16,84.134l1,1.732-17.321,10-1-1.732ZM120,89v2H100V89ZM35.866,98.16l-1.732,1-10-17.321,1.732-1ZM51,100H49V80h2Zm3.134.84,1.732,1-10,17.321-1.732-1Zm24.026,3.294,1,1.732-17.321,10-1-1.732ZM100,109v2H80v-2Zm19.321,5-1,1.732-17.321-10L102,104ZM31,120H29V100h2Z" transform="translate(0 1692)" fill="#f7f7f7" fill-rule="evenodd"/><path d="M111,0h-2V20h2ZM85.866.84l-1.732,1,10,17.321,1.732-1Zm20,20-1.732,1,10,17.321,1.732-1ZM61.84,4.134l-1,1.732,17.321,10,1-1.732Zm40,40-1,1.732,17.321,10,1-1.732ZM40,9v2H60V9Zm60,60v2h20V69ZM20.679,14l1,1.732L39,5.732,38,4Zm80,80,1,1.732,17.321-10L118,84ZM4.134,18.16l1.732,1,10-17.321-1.732-1Zm100,100,1.732,1,10-17.321-1.732-1ZM81.84,24.134l-1,1.732,17.321,10,1-1.732ZM60,29v2H80V29ZM40.679,34l1,1.732L59,25.732,58,24ZM24.134,38.16l1.732,1,10-17.321-1.732-1ZM9,40h2V20H9Zm-3.134.84-1.732,1,10,17.321,1.732-1ZM80,49v2h20V49ZM60.679,54l1,1.732L79,45.732,78,44ZM44.134,58.16l1.732,1,10-17.321-1.732-1ZM29,60h2V40H29Zm-3.134.84-1.732,1,10,17.321,1.732-1ZM1.84,64.134l-1,1.732,17.321,10,1-1.732ZM80.679,74l1,1.732L99,65.732,98,64ZM64.134,78.16l1.732,1,10-17.321-1.732-1ZM49,80h2V60H49Zm-3.134.84-1.732,1,10,17.321,1.732-1ZM21.84,84.134l-1,1.732,17.321,10,1-1.732ZM0,89v2H20V89Zm84.134,9.16,1.732,1,10-17.321-1.732-1ZM69,100h2V80H69Zm-3.134.84-1.732,1,10,17.321,1.732-1ZM41.84,104.134l-1,1.732,17.321,10,1-1.732ZM20,109v2H40v-2ZM.679,114l1,1.732,17.321-10L18,104ZM89,120h2V100H89Z" transform="translate(127 1819)" fill="#f7f7f7" fill-rule="evenodd"/><path d="M9,120h2V100H9Zm25.134-.84,1.732-1-10-17.321-1.732,1Zm-20-20,1.732-1-10-17.321-1.732,1ZM58.16,115.866l1-1.732-17.321-10-1,1.732Zm-40-40,1-1.732-17.321-10-1,1.732ZM80,111v-2H60v2ZM20,51V49H0v2Zm79.321,55-1-1.732L81,114.268,82,116Zm-80-80-1-1.732L1,34.268,2,36Zm96.546,75.84-1.732-1-10,17.321,1.732,1Zm-100-100-1.732-1-10,17.321,1.732,1ZM38.16,95.866l1-1.732-17.321-10-1,1.732ZM60,91V89H40v2Zm19.321-5-1-1.732L61,94.268,62,96Zm16.546-4.16-1.732-1-10,17.321,1.732,1ZM111,80h-2v20h2Zm3.134-.84,1.732-1-10-17.321-1.732,1ZM40,71V69H20v2Zm19.321-5-1-1.732L41,74.268,42,76Zm16.546-4.16-1.732-1-10,17.321,1.732,1ZM91,60H89V80h2Zm3.134-.84,1.732-1-10-17.321-1.732,1Zm24.026-3.294,1-1.732-17.321-10-1,1.732ZM39.321,46l-1-1.732L21,54.268,22,56Zm16.546-4.16-1.732-1-10,17.321,1.732,1ZM71,40H69V60h2Zm3.134-.84,1.732-1-10-17.321-1.732,1ZM98.16,35.866l1-1.732-17.321-10-1,1.732ZM120,31V29H100v2ZM35.866,21.84l-1.732-1-10,17.321,1.732,1ZM51,20H49V40h2Zm3.134-.84,1.732-1L45.866.84l-1.732,1ZM78.16,15.866l1-1.732-17.321-10-1,1.732ZM100,11V9H80v2Zm19.321-5-1-1.732L101,14.268,102,16ZM31,0H29V20h2Z" transform="translate(0 1819)" fill="#f7f7f7" fill-rule="evenodd"/><path d="M111,120h-2V100h2Zm-25.134-.84-1.732-1,10-17.321,1.732,1Zm20-20-1.732-1,10-17.321,1.732,1ZM61.84,115.866l-1-1.732,17.321-10,1,1.732Zm40-40-1-1.732,17.321-10,1,1.732ZM40,111v-2H60v2Zm60-60V49h20v2ZM20.679,106l1-1.732,17.321,10L38,116Zm80-80,1-1.732,17.321,10L118,36ZM4.134,101.84l1.732-1,10,17.321-1.732,1Zm100-100,1.732-1,10,17.321-1.732,1ZM81.84,95.866l-1-1.732,17.321-10,1,1.732ZM60,91V89H80v2ZM40.679,86l1-1.732L59,94.268,58,96ZM24.134,81.84l1.732-1,10,17.321-1.732,1ZM9,80h2v20H9Zm-3.134-.84-1.732-1,10-17.321,1.732,1ZM80,71V69h20v2ZM60.679,66l1-1.732L79,74.268,78,76ZM44.134,61.84l1.732-1,10,17.321-1.732,1ZM29,60h2V80H29Zm-3.134-.84-1.732-1,10-17.321,1.732,1ZM1.84,55.866l-1-1.732,17.321-10,1,1.732ZM80.679,46l1-1.732L99,54.268,98,56ZM64.134,41.84l1.732-1,10,17.321-1.732,1ZM49,40h2V60H49Zm-3.134-.84-1.732-1,10-17.321,1.732,1ZM21.84,35.866l-1-1.732,17.321-10,1,1.732ZM0,31V29H20v2Zm84.134-9.16,1.732-1,10,17.321-1.732,1ZM69,20h2V40H69Zm-3.134-.84-1.732-1L74.134.84l1.732,1ZM41.84,15.866l-1-1.732,17.321-10,1,1.732ZM20,11V9H40v2ZM.679,6l1-1.732L19,14.268,18,16ZM89,0h2V20H89Z" transform="translate(127 1692)" fill="#f7f7f7" fill-rule="evenodd"/></g><g transform="translate(0 -1438)"><path d="M9,0h2V20H9ZM34.134.84l1.732,1-10,17.321-1.732-1Zm-20,20,1.732,1-10,17.321-1.732-1ZM58.16,4.134l1,1.732-17.321,10-1-1.732Zm-40,40,1,1.732-17.321,10-1-1.732ZM80,9v2H60V9ZM20,69v2H0V69ZM99.321,14l-1,1.732L81,5.732,82,4Zm-80,80-1,1.732L1,85.732,2,84Zm96.546-75.84-1.732,1-10-17.321,1.732-1Zm-100,100-1.732,1-10-17.321,1.732-1ZM38.16,24.134l1,1.732-17.321,10-1-1.732ZM60,29v2H40V29Zm19.321,5-1,1.732L61,25.732,62,24Zm16.546,4.16-1.732,1-10-17.321,1.732-1ZM111,40h-2V20h2Zm3.134.84,1.732,1-10,17.321-1.732-1ZM40,49v2H20V49Zm19.321,5-1,1.732L41,45.732,42,44Zm16.546,4.16-1.732,1-10-17.321,1.732-1ZM91,60H89V40h2Zm3.134.84,1.732,1-10,17.321-1.732-1Zm24.026,3.294,1,1.732-17.321,10-1-1.732ZM39.321,74l-1,1.732L21,65.732,22,64Zm16.546,4.16-1.732,1-10-17.321,1.732-1ZM71,80H69V60h2Zm3.134.84,1.732,1-10,17.321-1.732-1ZM98.16,84.134l1,1.732-17.321,10-1-1.732ZM120,89v2H100V89ZM35.866,98.16l-1.732,1-10-17.321,1.732-1ZM51,100H49V80h2Zm3.134.84,1.732,1-10,17.321-1.732-1Zm24.026,3.294,1,1.732-17.321,10-1-1.732ZM100,109v2H80v-2Zm19.321,5-1,1.732-17.321-10L102,104ZM31,120H29V100h2Z" transform="translate(0 1692)" fill="#f7f7f7" fill-rule="evenodd"/><path d="M111,0h-2V20h2ZM85.866.84l-1.732,1,10,17.321,1.732-1Zm20,20-1.732,1,10,17.321,1.732-1ZM61.84,4.134l-1,1.732,17.321,10,1-1.732Zm40,40-1,1.732,17.321,10,1-1.732ZM40,9v2H60V9Zm60,60v2h20V69ZM20.679,14l1,1.732L39,5.732,38,4Zm80,80,1,1.732,17.321-10L118,84ZM4.134,18.16l1.732,1,10-17.321-1.732-1Zm100,100,1.732,1,10-17.321-1.732-1ZM81.84,24.134l-1,1.732,17.321,10,1-1.732ZM60,29v2H80V29ZM40.679,34l1,1.732L59,25.732,58,24ZM24.134,38.16l1.732,1,10-17.321-1.732-1ZM9,40h2V20H9Zm-3.134.84-1.732,1,10,17.321,1.732-1ZM80,49v2h20V49ZM60.679,54l1,1.732L79,45.732,78,44ZM44.134,58.16l1.732,1,10-17.321-1.732-1ZM29,60h2V40H29Zm-3.134.84-1.732,1,10,17.321,1.732-1ZM1.84,64.134l-1,1.732,17.321,10,1-1.732ZM80.679,74l1,1.732L99,65.732,98,64ZM64.134,78.16l1.732,1,10-17.321-1.732-1ZM49,80h2V60H49Zm-3.134.84-1.732,1,10,17.321,1.732-1ZM21.84,84.134l-1,1.732,17.321,10,1-1.732ZM0,89v2H20V89Zm84.134,9.16,1.732,1,10-17.321-1.732-1ZM69,100h2V80H69Zm-3.134.84-1.732,1,10,17.321,1.732-1ZM41.84,104.134l-1,1.732,17.321,10,1-1.732ZM20,109v2H40v-2ZM.679,114l1,1.732,17.321-10L18,104ZM89,120h2V100H89Z" transform="translate(127 1819)" fill="#f7f7f7" fill-rule="evenodd"/><path d="M9,120h2V100H9Zm25.134-.84,1.732-1-10-17.321-1.732,1Zm-20-20,1.732-1-10-17.321-1.732,1ZM58.16,115.866l1-1.732-17.321-10-1,1.732Zm-40-40,1-1.732-17.321-10-1,1.732ZM80,111v-2H60v2ZM20,51V49H0v2Zm79.321,55-1-1.732L81,114.268,82,116Zm-80-80-1-1.732L1,34.268,2,36Zm96.546,75.84-1.732-1-10,17.321,1.732,1Zm-100-100-1.732-1-10,17.321,1.732,1ZM38.16,95.866l1-1.732-17.321-10-1,1.732ZM60,91V89H40v2Zm19.321-5-1-1.732L61,94.268,62,96Zm16.546-4.16-1.732-1-10,17.321,1.732,1ZM111,80h-2v20h2Zm3.134-.84,1.732-1-10-17.321-1.732,1ZM40,71V69H20v2Zm19.321-5-1-1.732L41,74.268,42,76Zm16.546-4.16-1.732-1-10,17.321,1.732,1ZM91,60H89V80h2Zm3.134-.84,1.732-1-10-17.321-1.732,1Zm24.026-3.294,1-1.732-17.321-10-1,1.732ZM39.321,46l-1-1.732L21,54.268,22,56Zm16.546-4.16-1.732-1-10,17.321,1.732,1ZM71,40H69V60h2Zm3.134-.84,1.732-1-10-17.321-1.732,1ZM98.16,35.866l1-1.732-17.321-10-1,1.732ZM120,31V29H100v2ZM35.866,21.84l-1.732-1-10,17.321,1.732,1ZM51,20H49V40h2Zm3.134-.84,1.732-1L45.866.84l-1.732,1ZM78.16,15.866l1-1.732-17.321-10-1,1.732ZM100,11V9H80v2Zm19.321-5-1-1.732L101,14.268,102,16ZM31,0H29V20h2Z" transform="translate(0 1819)" fill="#f7f7f7" fill-rule="evenodd"/><path d="M111,120h-2V100h2Zm-25.134-.84-1.732-1,10-17.321,1.732,1Zm20-20-1.732-1,10-17.321,1.732,1ZM61.84,115.866l-1-1.732,17.321-10,1,1.732Zm40-40-1-1.732,17.321-10,1,1.732ZM40,111v-2H60v2Zm60-60V49h20v2ZM20.679,106l1-1.732,17.321,10L38,116Zm80-80,1-1.732,17.321,10L118,36ZM4.134,101.84l1.732-1,10,17.321-1.732,1Zm100-100,1.732-1,10,17.321-1.732,1ZM81.84,95.866l-1-1.732,17.321-10,1,1.732ZM60,91V89H80v2ZM40.679,86l1-1.732L59,94.268,58,96ZM24.134,81.84l1.732-1,10,17.321-1.732,1ZM9,80h2v20H9Zm-3.134-.84-1.732-1,10-17.321,1.732,1ZM80,71V69h20v2ZM60.679,66l1-1.732L79,74.268,78,76ZM44.134,61.84l1.732-1,10,17.321-1.732,1ZM29,60h2V80H29Zm-3.134-.84-1.732-1,10-17.321,1.732,1ZM1.84,55.866l-1-1.732,17.321-10,1,1.732ZM80.679,46l1-1.732L99,54.268,98,56ZM64.134,41.84l1.732-1,10,17.321-1.732,1ZM49,40h2V60H49Zm-3.134-.84-1.732-1,10-17.321,1.732,1ZM21.84,35.866l-1-1.732,17.321-10,1,1.732ZM0,31V29H20v2Zm84.134-9.16,1.732-1,10,17.321-1.732,1ZM69,20h2V40H69Zm-3.134-.84-1.732-1L74.134.84l1.732,1ZM41.84,15.866l-1-1.732,17.321-10,1,1.732ZM20,11V9H40v2ZM.679,6l1-1.732L19,14.268,18,16ZM89,0h2V20H89Z" transform="translate(127 1692)" fill="#f7f7f7" fill-rule="evenodd"/></g><g transform="translate(254 -1438)"><path d="M9,0h2V20H9ZM34.134.84l1.732,1-10,17.321-1.732-1Zm-20,20,1.732,1-10,17.321-1.732-1ZM58.16,4.134l1,1.732-17.321,10-1-1.732Zm-40,40,1,1.732-17.321,10-1-1.732ZM80,9v2H60V9ZM20,69v2H0V69ZM99.321,14l-1,1.732L81,5.732,82,4Zm-80,80-1,1.732L1,85.732,2,84Zm96.546-75.84-1.732,1-10-17.321,1.732-1Zm-100,100-1.732,1-10-17.321,1.732-1ZM38.16,24.134l1,1.732-17.321,10-1-1.732ZM60,29v2H40V29Zm19.321,5-1,1.732L61,25.732,62,24Zm16.546,4.16-1.732,1-10-17.321,1.732-1ZM111,40h-2V20h2Zm3.134.84,1.732,1-10,17.321-1.732-1ZM40,49v2H20V49Zm19.321,5-1,1.732L41,45.732,42,44Zm16.546,4.16-1.732,1-10-17.321,1.732-1ZM91,60H89V40h2Zm3.134.84,1.732,1-10,17.321-1.732-1Zm24.026,3.294,1,1.732-17.321,10-1-1.732ZM39.321,74l-1,1.732L21,65.732,22,64Zm16.546,4.16-1.732,1-10-17.321,1.732-1ZM71,80H69V60h2Zm3.134.84,1.732,1-10,17.321-1.732-1ZM98.16,84.134l1,1.732-17.321,10-1-1.732ZM120,89v2H100V89ZM35.866,98.16l-1.732,1-10-17.321,1.732-1ZM51,100H49V80h2Zm3.134.84,1.732,1-10,17.321-1.732-1Zm24.026,3.294,1,1.732-17.321,10-1-1.732ZM100,109v2H80v-2Zm19.321,5-1,1.732-17.321-10L102,104ZM31,120H29V100h2Z" transform="translate(0 1692)" fill="#f7f7f7" fill-rule="evenodd"/><path d="M111,0h-2V20h2ZM85.866.84l-1.732,1,10,17.321,1.732-1Zm20,20-1.732,1,10,17.321,1.732-1ZM61.84,4.134l-1,1.732,17.321,10,1-1.732Zm40,40-1,1.732,17.321,10,1-1.732ZM40,9v2H60V9Zm60,60v2h20V69ZM20.679,14l1,1.732L39,5.732,38,4Zm80,80,1,1.732,17.321-10L118,84ZM4.134,18.16l1.732,1,10-17.321-1.732-1Zm100,100,1.732,1,10-17.321-1.732-1ZM81.84,24.134l-1,1.732,17.321,10,1-1.732ZM60,29v2H80V29ZM40.679,34l1,1.732L59,25.732,58,24ZM24.134,38.16l1.732,1,10-17.321-1.732-1ZM9,40h2V20H9Zm-3.134.84-1.732,1,10,17.321,1.732-1ZM80,49v2h20V49ZM60.679,54l1,1.732L79,45.732,78,44ZM44.134,58.16l1.732,1,10-17.321-1.732-1ZM29,60h2V40H29Zm-3.134.84-1.732,1,10,17.321,1.732-1ZM1.84,64.134l-1,1.732,17.321,10,1-1.732ZM80.679,74l1,1.732L99,65.732,98,64ZM64.134,78.16l1.732,1,10-17.321-1.732-1ZM49,80h2V60H49Zm-3.134.84-1.732,1,10,17.321,1.732-1ZM21.84,84.134l-1,1.732,17.321,10,1-1.732ZM0,89v2H20V89Zm84.134,9.16,1.732,1,10-17.321-1.732-1ZM69,100h2V80H69Zm-3.134.84-1.732,1,10,17.321,1.732-1ZM41.84,104.134l-1,1.732,17.321,10,1-1.732ZM20,109v2H40v-2ZM.679,114l1,1.732,17.321-10L18,104ZM89,120h2V100H89Z" transform="translate(127 1819)" fill="#f7f7f7" fill-rule="evenodd"/><path d="M9,120h2V100H9Zm25.134-.84,1.732-1-10-17.321-1.732,1Zm-20-20,1.732-1-10-17.321-1.732,1ZM58.16,115.866l1-1.732-17.321-10-1,1.732Zm-40-40,1-1.732-17.321-10-1,1.732ZM80,111v-2H60v2ZM20,51V49H0v2Zm79.321,55-1-1.732L81,114.268,82,116Zm-80-80-1-1.732L1,34.268,2,36Zm96.546,75.84-1.732-1-10,17.321,1.732,1Zm-100-100-1.732-1-10,17.321,1.732,1ZM38.16,95.866l1-1.732-17.321-10-1,1.732ZM60,91V89H40v2Zm19.321-5-1-1.732L61,94.268,62,96Zm16.546-4.16-1.732-1-10,17.321,1.732,1ZM111,80h-2v20h2Zm3.134-.84,1.732-1-10-17.321-1.732,1ZM40,71V69H20v2Zm19.321-5-1-1.732L41,74.268,42,76Zm16.546-4.16-1.732-1-10,17.321,1.732,1ZM91,60H89V80h2Zm3.134-.84,1.732-1-10-17.321-1.732,1Zm24.026-3.294,1-1.732-17.321-10-1,1.732ZM39.321,46l-1-1.732L21,54.268,22,56Zm16.546-4.16-1.732-1-10,17.321,1.732,1ZM71,40H69V60h2Zm3.134-.84,1.732-1-10-17.321-1.732,1ZM98.16,35.866l1-1.732-17.321-10-1,1.732ZM120,31V29H100v2ZM35.866,21.84l-1.732-1-10,17.321,1.732,1ZM51,20H49V40h2Zm3.134-.84,1.732-1L45.866.84l-1.732,1ZM78.16,15.866l1-1.732-17.321-10-1,1.732ZM100,11V9H80v2Zm19.321-5-1-1.732L101,14.268,102,16ZM31,0H29V20h2Z" transform="translate(0 1819)" fill="#f7f7f7" fill-rule="evenodd"/><path d="M111,120h-2V100h2Zm-25.134-.84-1.732-1,10-17.321,1.732,1Zm20-20-1.732-1,10-17.321,1.732,1ZM61.84,115.866l-1-1.732,17.321-10,1,1.732Zm40-40-1-1.732,17.321-10,1,1.732ZM40,111v-2H60v2Zm60-60V49h20v2ZM20.679,106l1-1.732,17.321,10L38,116Zm80-80,1-1.732,17.321,10L118,36ZM4.134,101.84l1.732-1,10,17.321-1.732,1Zm100-100,1.732-1,10,17.321-1.732,1ZM81.84,95.866l-1-1.732,17.321-10,1,1.732ZM60,91V89H80v2ZM40.679,86l1-1.732L59,94.268,58,96ZM24.134,81.84l1.732-1,10,17.321-1.732,1ZM9,80h2v20H9Zm-3.134-.84-1.732-1,10-17.321,1.732,1ZM80,71V69h20v2ZM60.679,66l1-1.732L79,74.268,78,76ZM44.134,61.84l1.732-1,10,17.321-1.732,1ZM29,60h2V80H29Zm-3.134-.84-1.732-1,10-17.321,1.732,1ZM1.84,55.866l-1-1.732,17.321-10,1,1.732ZM80.679,46l1-1.732L99,54.268,98,56ZM64.134,41.84l1.732-1,10,17.321-1.732,1ZM49,40h2V60H49Zm-3.134-.84-1.732-1,10-17.321,1.732,1ZM21.84,35.866l-1-1.732,17.321-10,1,1.732ZM0,31V29H20v2Zm84.134-9.16,1.732-1,10,17.321-1.732,1ZM69,20h2V40H69Zm-3.134-.84-1.732-1L74.134.84l1.732,1ZM41.84,15.866l-1-1.732,17.321-10,1,1.732ZM20,11V9H40v2ZM.679,6l1-1.732L19,14.268,18,16ZM89,0h2V20H89Z" transform="translate(127 1692)" fill="#f7f7f7" fill-rule="evenodd"/></g><g transform="translate(508 -1438)"><path d="M9,0h2V20H9ZM34.134.84l1.732,1-10,17.321-1.732-1Zm-20,20,1.732,1-10,17.321-1.732-1ZM58.16,4.134l1,1.732-17.321,10-1-1.732Zm-40,40,1,1.732-17.321,10-1-1.732ZM80,9v2H60V9ZM20,69v2H0V69ZM99.321,14l-1,1.732L81,5.732,82,4Zm-80,80-1,1.732L1,85.732,2,84Zm96.546-75.84-1.732,1-10-17.321,1.732-1Zm-100,100-1.732,1-10-17.321,1.732-1ZM38.16,24.134l1,1.732-17.321,10-1-1.732ZM60,29v2H40V29Zm19.321,5-1,1.732L61,25.732,62,24Zm16.546,4.16-1.732,1-10-17.321,1.732-1ZM111,40h-2V20h2Zm3.134.84,1.732,1-10,17.321-1.732-1ZM40,49v2H20V49Zm19.321,5-1,1.732L41,45.732,42,44Zm16.546,4.16-1.732,1-10-17.321,1.732-1ZM91,60H89V40h2Zm3.134.84,1.732,1-10,17.321-1.732-1Zm24.026,3.294,1,1.732-17.321,10-1-1.732ZM39.321,74l-1,1.732L21,65.732,22,64Zm16.546,4.16-1.732,1-10-17.321,1.732-1ZM71,80H69V60h2Zm3.134.84,1.732,1-10,17.321-1.732-1ZM98.16,84.134l1,1.732-17.321,10-1-1.732ZM120,89v2H100V89ZM35.866,98.16l-1.732,1-10-17.321,1.732-1ZM51,100H49V80h2Zm3.134.84,1.732,1-10,17.321-1.732-1Zm24.026,3.294,1,1.732-17.321,10-1-1.732ZM100,109v2H80v-2Zm19.321,5-1,1.732-17.321-10L102,104ZM31,120H29V100h2Z" transform="translate(0 1692)" fill="#f7f7f7" fill-rule="evenodd"/><path d="M111,0h-2V20h2ZM85.866.84l-1.732,1,10,17.321,1.732-1Zm20,20-1.732,1,10,17.321,1.732-1ZM61.84,4.134l-1,1.732,17.321,10,1-1.732Zm40,40-1,1.732,17.321,10,1-1.732ZM40,9v2H60V9Zm60,60v2h20V69ZM20.679,14l1,1.732L39,5.732,38,4Zm80,80,1,1.732,17.321-10L118,84ZM4.134,18.16l1.732,1,10-17.321-1.732-1Zm100,100,1.732,1,10-17.321-1.732-1ZM81.84,24.134l-1,1.732,17.321,10,1-1.732ZM60,29v2H80V29ZM40.679,34l1,1.732L59,25.732,58,24ZM24.134,38.16l1.732,1,10-17.321-1.732-1ZM9,40h2V20H9Zm-3.134.84-1.732,1,10,17.321,1.732-1ZM80,49v2h20V49ZM60.679,54l1,1.732L79,45.732,78,44ZM44.134,58.16l1.732,1,10-17.321-1.732-1ZM29,60h2V40H29Zm-3.134.84-1.732,1,10,17.321,1.732-1ZM1.84,64.134l-1,1.732,17.321,10,1-1.732ZM80.679,74l1,1.732L99,65.732,98,64ZM64.134,78.16l1.732,1,10-17.321-1.732-1ZM49,80h2V60H49Zm-3.134.84-1.732,1,10,17.321,1.732-1ZM21.84,84.134l-1,1.732,17.321,10,1-1.732ZM0,89v2H20V89Zm84.134,9.16,1.732,1,10-17.321-1.732-1ZM69,100h2V80H69Zm-3.134.84-1.732,1,10,17.321,1.732-1ZM41.84,104.134l-1,1.732,17.321,10,1-1.732ZM20,109v2H40v-2ZM.679,114l1,1.732,17.321-10L18,104ZM89,120h2V100H89Z" transform="translate(127 1819)" fill="#f7f7f7" fill-rule="evenodd"/><path d="M9,120h2V100H9Zm25.134-.84,1.732-1-10-17.321-1.732,1Zm-20-20,1.732-1-10-17.321-1.732,1ZM58.16,115.866l1-1.732-17.321-10-1,1.732Zm-40-40,1-1.732-17.321-10-1,1.732ZM80,111v-2H60v2ZM20,51V49H0v2Zm79.321,55-1-1.732L81,114.268,82,116Zm-80-80-1-1.732L1,34.268,2,36Zm96.546,75.84-1.732-1-10,17.321,1.732,1Zm-100-100-1.732-1-10,17.321,1.732,1ZM38.16,95.866l1-1.732-17.321-10-1,1.732ZM60,91V89H40v2Zm19.321-5-1-1.732L61,94.268,62,96Zm16.546-4.16-1.732-1-10,17.321,1.732,1ZM111,80h-2v20h2Zm3.134-.84,1.732-1-10-17.321-1.732,1ZM40,71V69H20v2Zm19.321-5-1-1.732L41,74.268,42,76Zm16.546-4.16-1.732-1-10,17.321,1.732,1ZM91,60H89V80h2Zm3.134-.84,1.732-1-10-17.321-1.732,1Zm24.026-3.294,1-1.732-17.321-10-1,1.732ZM39.321,46l-1-1.732L21,54.268,22,56Zm16.546-4.16-1.732-1-10,17.321,1.732,1ZM71,40H69V60h2Zm3.134-.84,1.732-1-10-17.321-1.732,1ZM98.16,35.866l1-1.732-17.321-10-1,1.732ZM120,31V29H100v2ZM35.866,21.84l-1.732-1-10,17.321,1.732,1ZM51,20H49V40h2Zm3.134-.84,1.732-1L45.866.84l-1.732,1ZM78.16,15.866l1-1.732-17.321-10-1,1.732ZM100,11V9H80v2Zm19.321-5-1-1.732L101,14.268,102,16ZM31,0H29V20h2Z" transform="translate(0 1819)" fill="#f7f7f7" fill-rule="evenodd"/><path d="M111,120h-2V100h2Zm-25.134-.84-1.732-1,10-17.321,1.732,1Zm20-20-1.732-1,10-17.321,1.732,1ZM61.84,115.866l-1-1.732,17.321-10,1,1.732Zm40-40-1-1.732,17.321-10,1,1.732ZM40,111v-2H60v2Zm60-60V49h20v2ZM20.679,106l1-1.732,17.321,10L38,116Zm80-80,1-1.732,17.321,10L118,36ZM4.134,101.84l1.732-1,10,17.321-1.732,1Zm100-100,1.732-1,10,17.321-1.732,1ZM81.84,95.866l-1-1.732,17.321-10,1,1.732ZM60,91V89H80v2ZM40.679,86l1-1.732L59,94.268,58,96ZM24.134,81.84l1.732-1,10,17.321-1.732,1ZM9,80h2v20H9Zm-3.134-.84-1.732-1,10-17.321,1.732,1ZM80,71V69h20v2ZM60.679,66l1-1.732L79,74.268,78,76ZM44.134,61.84l1.732-1,10,17.321-1.732,1ZM29,60h2V80H29Zm-3.134-.84-1.732-1,10-17.321,1.732,1ZM1.84,55.866l-1-1.732,17.321-10,1,1.732ZM80.679,46l1-1.732L99,54.268,98,56ZM64.134,41.84l1.732-1,10,17.321-1.732,1ZM49,40h2V60H49Zm-3.134-.84-1.732-1,10-17.321,1.732,1ZM21.84,35.866l-1-1.732,17.321-10,1,1.732ZM0,31V29H20v2Zm84.134-9.16,1.732-1,10,17.321-1.732,1ZM69,20h2V40H69Zm-3.134-.84-1.732-1L74.134.84l1.732,1ZM41.84,15.866l-1-1.732,17.321-10,1,1.732ZM20,11V9H40v2ZM.679,6l1-1.732L19,14.268,18,16ZM89,0h2V20H89Z" transform="translate(127 1692)" fill="#f7f7f7" fill-rule="evenodd"/></g><g transform="translate(762 -1438)"><path d="M9,0h2V20H9ZM34.134.84l1.732,1-10,17.321-1.732-1Zm-20,20,1.732,1-10,17.321-1.732-1ZM58.16,4.134l1,1.732-17.321,10-1-1.732Zm-40,40,1,1.732-17.321,10-1-1.732ZM80,9v2H60V9ZM20,69v2H0V69ZM99.321,14l-1,1.732L81,5.732,82,4Zm-80,80-1,1.732L1,85.732,2,84Zm96.546-75.84-1.732,1-10-17.321,1.732-1Zm-100,100-1.732,1-10-17.321,1.732-1ZM38.16,24.134l1,1.732-17.321,10-1-1.732ZM60,29v2H40V29Zm19.321,5-1,1.732L61,25.732,62,24Zm16.546,4.16-1.732,1-10-17.321,1.732-1ZM111,40h-2V20h2Zm3.134.84,1.732,1-10,17.321-1.732-1ZM40,49v2H20V49Zm19.321,5-1,1.732L41,45.732,42,44Zm16.546,4.16-1.732,1-10-17.321,1.732-1ZM91,60H89V40h2Zm3.134.84,1.732,1-10,17.321-1.732-1Zm24.026,3.294,1,1.732-17.321,10-1-1.732ZM39.321,74l-1,1.732L21,65.732,22,64Zm16.546,4.16-1.732,1-10-17.321,1.732-1ZM71,80H69V60h2Zm3.134.84,1.732,1-10,17.321-1.732-1ZM98.16,84.134l1,1.732-17.321,10-1-1.732ZM120,89v2H100V89ZM35.866,98.16l-1.732,1-10-17.321,1.732-1ZM51,100H49V80h2Zm3.134.84,1.732,1-10,17.321-1.732-1Zm24.026,3.294,1,1.732-17.321,10-1-1.732ZM100,109v2H80v-2Zm19.321,5-1,1.732-17.321-10L102,104ZM31,120H29V100h2Z" transform="translate(0 1692)" fill="#f7f7f7" fill-rule="evenodd"/><path d="M111,0h-2V20h2ZM85.866.84l-1.732,1,10,17.321,1.732-1Zm20,20-1.732,1,10,17.321,1.732-1ZM61.84,4.134l-1,1.732,17.321,10,1-1.732Zm40,40-1,1.732,17.321,10,1-1.732ZM40,9v2H60V9Zm60,60v2h20V69ZM20.679,14l1,1.732L39,5.732,38,4Zm80,80,1,1.732,17.321-10L118,84ZM4.134,18.16l1.732,1,10-17.321-1.732-1Zm100,100,1.732,1,10-17.321-1.732-1ZM81.84,24.134l-1,1.732,17.321,10,1-1.732ZM60,29v2H80V29ZM40.679,34l1,1.732L59,25.732,58,24ZM24.134,38.16l1.732,1,10-17.321-1.732-1ZM9,40h2V20H9Zm-3.134.84-1.732,1,10,17.321,1.732-1ZM80,49v2h20V49ZM60.679,54l1,1.732L79,45.732,78,44ZM44.134,58.16l1.732,1,10-17.321-1.732-1ZM29,60h2V40H29Zm-3.134.84-1.732,1,10,17.321,1.732-1ZM1.84,64.134l-1,1.732,17.321,10,1-1.732ZM80.679,74l1,1.732L99,65.732,98,64ZM64.134,78.16l1.732,1,10-17.321-1.732-1ZM49,80h2V60H49Zm-3.134.84-1.732,1,10,17.321,1.732-1ZM21.84,84.134l-1,1.732,17.321,10,1-1.732ZM0,89v2H20V89Zm84.134,9.16,1.732,1,10-17.321-1.732-1ZM69,100h2V80H69Zm-3.134.84-1.732,1,10,17.321,1.732-1ZM41.84,104.134l-1,1.732,17.321,10,1-1.732ZM20,109v2H40v-2ZM.679,114l1,1.732,17.321-10L18,104ZM89,120h2V100H89Z" transform="translate(127 1819)" fill="#f7f7f7" fill-rule="evenodd"/><path d="M9,120h2V100H9Zm25.134-.84,1.732-1-10-17.321-1.732,1Zm-20-20,1.732-1-10-17.321-1.732,1ZM58.16,115.866l1-1.732-17.321-10-1,1.732Zm-40-40,1-1.732-17.321-10-1,1.732ZM80,111v-2H60v2ZM20,51V49H0v2Zm79.321,55-1-1.732L81,114.268,82,116Zm-80-80-1-1.732L1,34.268,2,36Zm96.546,75.84-1.732-1-10,17.321,1.732,1Zm-100-100-1.732-1-10,17.321,1.732,1ZM38.16,95.866l1-1.732-17.321-10-1,1.732ZM60,91V89H40v2Zm19.321-5-1-1.732L61,94.268,62,96Zm16.546-4.16-1.732-1-10,17.321,1.732,1ZM111,80h-2v20h2Zm3.134-.84,1.732-1-10-17.321-1.732,1ZM40,71V69H20v2Zm19.321-5-1-1.732L41,74.268,42,76Zm16.546-4.16-1.732-1-10,17.321,1.732,1ZM91,60H89V80h2Zm3.134-.84,1.732-1-10-17.321-1.732,1Zm24.026-3.294,1-1.732-17.321-10-1,1.732ZM39.321,46l-1-1.732L21,54.268,22,56Zm16.546-4.16-1.732-1-10,17.321,1.732,1ZM71,40H69V60h2Zm3.134-.84,1.732-1-10-17.321-1.732,1ZM98.16,35.866l1-1.732-17.321-10-1,1.732ZM120,31V29H100v2ZM35.866,21.84l-1.732-1-10,17.321,1.732,1ZM51,20H49V40h2Zm3.134-.84,1.732-1L45.866.84l-1.732,1ZM78.16,15.866l1-1.732-17.321-10-1,1.732ZM100,11V9H80v2Zm19.321-5-1-1.732L101,14.268,102,16ZM31,0H29V20h2Z" transform="translate(0 1819)" fill="#f7f7f7" fill-rule="evenodd"/><path d="M111,120h-2V100h2Zm-25.134-.84-1.732-1,10-17.321,1.732,1Zm20-20-1.732-1,10-17.321,1.732,1ZM61.84,115.866l-1-1.732,17.321-10,1,1.732Zm40-40-1-1.732,17.321-10,1,1.732ZM40,111v-2H60v2Zm60-60V49h20v2ZM20.679,106l1-1.732,17.321,10L38,116Zm80-80,1-1.732,17.321,10L118,36ZM4.134,101.84l1.732-1,10,17.321-1.732,1Zm100-100,1.732-1,10,17.321-1.732,1ZM81.84,95.866l-1-1.732,17.321-10,1,1.732ZM60,91V89H80v2ZM40.679,86l1-1.732L59,94.268,58,96ZM24.134,81.84l1.732-1,10,17.321-1.732,1ZM9,80h2v20H9Zm-3.134-.84-1.732-1,10-17.321,1.732,1ZM80,71V69h20v2ZM60.679,66l1-1.732L79,74.268,78,76ZM44.134,61.84l1.732-1,10,17.321-1.732,1ZM29,60h2V80H29Zm-3.134-.84-1.732-1,10-17.321,1.732,1ZM1.84,55.866l-1-1.732,17.321-10,1,1.732ZM80.679,46l1-1.732L99,54.268,98,56ZM64.134,41.84l1.732-1,10,17.321-1.732,1ZM49,40h2V60H49Zm-3.134-.84-1.732-1,10-17.321,1.732,1ZM21.84,35.866l-1-1.732,17.321-10,1,1.732ZM0,31V29H20v2Zm84.134-9.16,1.732-1,10,17.321-1.732,1ZM69,20h2V40H69Zm-3.134-.84-1.732-1L74.134.84l1.732,1ZM41.84,15.866l-1-1.732,17.321-10,1,1.732ZM20,11V9H40v2ZM.679,6l1-1.732L19,14.268,18,16ZM89,0h2V20H89Z" transform="translate(127 1692)" fill="#f7f7f7" fill-rule="evenodd"/></g><g transform="translate(1016 -1438)"><path d="M9,0h2V20H9ZM34.134.84l1.732,1-10,17.321-1.732-1Zm-20,20,1.732,1-10,17.321-1.732-1ZM58.16,4.134l1,1.732-17.321,10-1-1.732Zm-40,40,1,1.732-17.321,10-1-1.732ZM80,9v2H60V9ZM20,69v2H0V69ZM99.321,14l-1,1.732L81,5.732,82,4Zm-80,80-1,1.732L1,85.732,2,84Zm96.546-75.84-1.732,1-10-17.321,1.732-1Zm-100,100-1.732,1-10-17.321,1.732-1ZM38.16,24.134l1,1.732-17.321,10-1-1.732ZM60,29v2H40V29Zm19.321,5-1,1.732L61,25.732,62,24Zm16.546,4.16-1.732,1-10-17.321,1.732-1ZM111,40h-2V20h2Zm3.134.84,1.732,1-10,17.321-1.732-1ZM40,49v2H20V49Zm19.321,5-1,1.732L41,45.732,42,44Zm16.546,4.16-1.732,1-10-17.321,1.732-1ZM91,60H89V40h2Zm3.134.84,1.732,1-10,17.321-1.732-1Zm24.026,3.294,1,1.732-17.321,10-1-1.732ZM39.321,74l-1,1.732L21,65.732,22,64Zm16.546,4.16-1.732,1-10-17.321,1.732-1ZM71,80H69V60h2Zm3.134.84,1.732,1-10,17.321-1.732-1ZM98.16,84.134l1,1.732-17.321,10-1-1.732ZM120,89v2H100V89ZM35.866,98.16l-1.732,1-10-17.321,1.732-1ZM51,100H49V80h2Zm3.134.84,1.732,1-10,17.321-1.732-1Zm24.026,3.294,1,1.732-17.321,10-1-1.732ZM100,109v2H80v-2Zm19.321,5-1,1.732-17.321-10L102,104ZM31,120H29V100h2Z" transform="translate(0 1692)" fill="#f7f7f7" fill-rule="evenodd"/><path d="M111,0h-2V20h2ZM85.866.84l-1.732,1,10,17.321,1.732-1Zm20,20-1.732,1,10,17.321,1.732-1ZM61.84,4.134l-1,1.732,17.321,10,1-1.732Zm40,40-1,1.732,17.321,10,1-1.732ZM40,9v2H60V9Zm60,60v2h20V69ZM20.679,14l1,1.732L39,5.732,38,4Zm80,80,1,1.732,17.321-10L118,84ZM4.134,18.16l1.732,1,10-17.321-1.732-1Zm100,100,1.732,1,10-17.321-1.732-1ZM81.84,24.134l-1,1.732,17.321,10,1-1.732ZM60,29v2H80V29ZM40.679,34l1,1.732L59,25.732,58,24ZM24.134,38.16l1.732,1,10-17.321-1.732-1ZM9,40h2V20H9Zm-3.134.84-1.732,1,10,17.321,1.732-1ZM80,49v2h20V49ZM60.679,54l1,1.732L79,45.732,78,44ZM44.134,58.16l1.732,1,10-17.321-1.732-1ZM29,60h2V40H29Zm-3.134.84-1.732,1,10,17.321,1.732-1ZM1.84,64.134l-1,1.732,17.321,10,1-1.732ZM80.679,74l1,1.732L99,65.732,98,64ZM64.134,78.16l1.732,1,10-17.321-1.732-1ZM49,80h2V60H49Zm-3.134.84-1.732,1,10,17.321,1.732-1ZM21.84,84.134l-1,1.732,17.321,10,1-1.732ZM0,89v2H20V89Zm84.134,9.16,1.732,1,10-17.321-1.732-1ZM69,100h2V80H69Zm-3.134.84-1.732,1,10,17.321,1.732-1ZM41.84,104.134l-1,1.732,17.321,10,1-1.732ZM20,109v2H40v-2ZM.679,114l1,1.732,17.321-10L18,104ZM89,120h2V100H89Z" transform="translate(127 1819)" fill="#f7f7f7" fill-rule="evenodd"/><path d="M9,120h2V100H9Zm25.134-.84,1.732-1-10-17.321-1.732,1Zm-20-20,1.732-1-10-17.321-1.732,1ZM58.16,115.866l1-1.732-17.321-10-1,1.732Zm-40-40,1-1.732-17.321-10-1,1.732ZM80,111v-2H60v2ZM20,51V49H0v2Zm79.321,55-1-1.732L81,114.268,82,116Zm-80-80-1-1.732L1,34.268,2,36Zm96.546,75.84-1.732-1-10,17.321,1.732,1Zm-100-100-1.732-1-10,17.321,1.732,1ZM38.16,95.866l1-1.732-17.321-10-1,1.732ZM60,91V89H40v2Zm19.321-5-1-1.732L61,94.268,62,96Zm16.546-4.16-1.732-1-10,17.321,1.732,1ZM111,80h-2v20h2Zm3.134-.84,1.732-1-10-17.321-1.732,1ZM40,71V69H20v2Zm19.321-5-1-1.732L41,74.268,42,76Zm16.546-4.16-1.732-1-10,17.321,1.732,1ZM91,60H89V80h2Zm3.134-.84,1.732-1-10-17.321-1.732,1Zm24.026-3.294,1-1.732-17.321-10-1,1.732ZM39.321,46l-1-1.732L21,54.268,22,56Zm16.546-4.16-1.732-1-10,17.321,1.732,1ZM71,40H69V60h2Zm3.134-.84,1.732-1-10-17.321-1.732,1ZM98.16,35.866l1-1.732-17.321-10-1,1.732ZM120,31V29H100v2ZM35.866,21.84l-1.732-1-10,17.321,1.732,1ZM51,20H49V40h2Zm3.134-.84,1.732-1L45.866.84l-1.732,1ZM78.16,15.866l1-1.732-17.321-10-1,1.732ZM100,11V9H80v2Zm19.321-5-1-1.732L101,14.268,102,16ZM31,0H29V20h2Z" transform="translate(0 1819)" fill="#f7f7f7" fill-rule="evenodd"/><path d="M111,120h-2V100h2Zm-25.134-.84-1.732-1,10-17.321,1.732,1Zm20-20-1.732-1,10-17.321,1.732,1ZM61.84,115.866l-1-1.732,17.321-10,1,1.732Zm40-40-1-1.732,17.321-10,1,1.732ZM40,111v-2H60v2Zm60-60V49h20v2ZM20.679,106l1-1.732,17.321,10L38,116Zm80-80,1-1.732,17.321,10L118,36ZM4.134,101.84l1.732-1,10,17.321-1.732,1Zm100-100,1.732-1,10,17.321-1.732,1ZM81.84,95.866l-1-1.732,17.321-10,1,1.732ZM60,91V89H80v2ZM40.679,86l1-1.732L59,94.268,58,96ZM24.134,81.84l1.732-1,10,17.321-1.732,1ZM9,80h2v20H9Zm-3.134-.84-1.732-1,10-17.321,1.732,1ZM80,71V69h20v2ZM60.679,66l1-1.732L79,74.268,78,76ZM44.134,61.84l1.732-1,10,17.321-1.732,1ZM29,60h2V80H29Zm-3.134-.84-1.732-1,10-17.321,1.732,1ZM1.84,55.866l-1-1.732,17.321-10,1,1.732ZM80.679,46l1-1.732L99,54.268,98,56ZM64.134,41.84l1.732-1,10,17.321-1.732,1ZM49,40h2V60H49Zm-3.134-.84-1.732-1,10-17.321,1.732,1ZM21.84,35.866l-1-1.732,17.321-10,1,1.732ZM0,31V29H20v2Zm84.134-9.16,1.732-1,10,17.321-1.732,1ZM69,20h2V40H69Zm-3.134-.84-1.732-1L74.134.84l1.732,1ZM41.84,15.866l-1-1.732,17.321-10,1,1.732ZM20,11V9H40v2ZM.679,6l1-1.732L19,14.268,18,16ZM89,0h2V20H89Z" transform="translate(127 1692)" fill="#f7f7f7" fill-rule="evenodd"/></g><g transform="translate(1270 -1438)"><path d="M9,0h2V20H9ZM34.134.84l1.732,1-10,17.321-1.732-1Zm-20,20,1.732,1-10,17.321-1.732-1ZM58.16,4.134l1,1.732-17.321,10-1-1.732Zm-40,40,1,1.732-17.321,10-1-1.732ZM80,9v2H60V9ZM20,69v2H0V69ZM99.321,14l-1,1.732L81,5.732,82,4Zm-80,80-1,1.732L1,85.732,2,84Zm96.546-75.84-1.732,1-10-17.321,1.732-1Zm-100,100-1.732,1-10-17.321,1.732-1ZM38.16,24.134l1,1.732-17.321,10-1-1.732ZM60,29v2H40V29Zm19.321,5-1,1.732L61,25.732,62,24Zm16.546,4.16-1.732,1-10-17.321,1.732-1ZM111,40h-2V20h2Zm3.134.84,1.732,1-10,17.321-1.732-1ZM40,49v2H20V49Zm19.321,5-1,1.732L41,45.732,42,44Zm16.546,4.16-1.732,1-10-17.321,1.732-1ZM91,60H89V40h2Zm3.134.84,1.732,1-10,17.321-1.732-1Zm24.026,3.294,1,1.732-17.321,10-1-1.732ZM39.321,74l-1,1.732L21,65.732,22,64Zm16.546,4.16-1.732,1-10-17.321,1.732-1ZM71,80H69V60h2Zm3.134.84,1.732,1-10,17.321-1.732-1ZM98.16,84.134l1,1.732-17.321,10-1-1.732ZM120,89v2H100V89ZM35.866,98.16l-1.732,1-10-17.321,1.732-1ZM51,100H49V80h2Zm3.134.84,1.732,1-10,17.321-1.732-1Zm24.026,3.294,1,1.732-17.321,10-1-1.732ZM100,109v2H80v-2Zm19.321,5-1,1.732-17.321-10L102,104ZM31,120H29V100h2Z" transform="translate(0 1692)" fill="#f7f7f7" fill-rule="evenodd"/><path d="M111,0h-2V20h2ZM85.866.84l-1.732,1,10,17.321,1.732-1Zm20,20-1.732,1,10,17.321,1.732-1ZM61.84,4.134l-1,1.732,17.321,10,1-1.732Zm40,40-1,1.732,17.321,10,1-1.732ZM40,9v2H60V9Zm60,60v2h20V69ZM20.679,14l1,1.732L39,5.732,38,4Zm80,80,1,1.732,17.321-10L118,84ZM4.134,18.16l1.732,1,10-17.321-1.732-1Zm100,100,1.732,1,10-17.321-1.732-1ZM81.84,24.134l-1,1.732,17.321,10,1-1.732ZM60,29v2H80V29ZM40.679,34l1,1.732L59,25.732,58,24ZM24.134,38.16l1.732,1,10-17.321-1.732-1ZM9,40h2V20H9Zm-3.134.84-1.732,1,10,17.321,1.732-1ZM80,49v2h20V49ZM60.679,54l1,1.732L79,45.732,78,44ZM44.134,58.16l1.732,1,10-17.321-1.732-1ZM29,60h2V40H29Zm-3.134.84-1.732,1,10,17.321,1.732-1ZM1.84,64.134l-1,1.732,17.321,10,1-1.732ZM80.679,74l1,1.732L99,65.732,98,64ZM64.134,78.16l1.732,1,10-17.321-1.732-1ZM49,80h2V60H49Zm-3.134.84-1.732,1,10,17.321,1.732-1ZM21.84,84.134l-1,1.732,17.321,10,1-1.732ZM0,89v2H20V89Zm84.134,9.16,1.732,1,10-17.321-1.732-1ZM69,100h2V80H69Zm-3.134.84-1.732,1,10,17.321,1.732-1ZM41.84,104.134l-1,1.732,17.321,10,1-1.732ZM20,109v2H40v-2ZM.679,114l1,1.732,17.321-10L18,104ZM89,120h2V100H89Z" transform="translate(127 1819)" fill="#f7f7f7" fill-rule="evenodd"/><path d="M9,120h2V100H9Zm25.134-.84,1.732-1-10-17.321-1.732,1Zm-20-20,1.732-1-10-17.321-1.732,1ZM58.16,115.866l1-1.732-17.321-10-1,1.732Zm-40-40,1-1.732-17.321-10-1,1.732ZM80,111v-2H60v2ZM20,51V49H0v2Zm79.321,55-1-1.732L81,114.268,82,116Zm-80-80-1-1.732L1,34.268,2,36Zm96.546,75.84-1.732-1-10,17.321,1.732,1Zm-100-100-1.732-1-10,17.321,1.732,1ZM38.16,95.866l1-1.732-17.321-10-1,1.732ZM60,91V89H40v2Zm19.321-5-1-1.732L61,94.268,62,96Zm16.546-4.16-1.732-1-10,17.321,1.732,1ZM111,80h-2v20h2Zm3.134-.84,1.732-1-10-17.321-1.732,1ZM40,71V69H20v2Zm19.321-5-1-1.732L41,74.268,42,76Zm16.546-4.16-1.732-1-10,17.321,1.732,1ZM91,60H89V80h2Zm3.134-.84,1.732-1-10-17.321-1.732,1Zm24.026-3.294,1-1.732-17.321-10-1,1.732ZM39.321,46l-1-1.732L21,54.268,22,56Zm16.546-4.16-1.732-1-10,17.321,1.732,1ZM71,40H69V60h2Zm3.134-.84,1.732-1-10-17.321-1.732,1ZM98.16,35.866l1-1.732-17.321-10-1,1.732ZM120,31V29H100v2ZM35.866,21.84l-1.732-1-10,17.321,1.732,1ZM51,20H49V40h2Zm3.134-.84,1.732-1L45.866.84l-1.732,1ZM78.16,15.866l1-1.732-17.321-10-1,1.732ZM100,11V9H80v2Zm19.321-5-1-1.732L101,14.268,102,16ZM31,0H29V20h2Z" transform="translate(0 1819)" fill="#f7f7f7" fill-rule="evenodd"/><path d="M111,120h-2V100h2Zm-25.134-.84-1.732-1,10-17.321,1.732,1Zm20-20-1.732-1,10-17.321,1.732,1ZM61.84,115.866l-1-1.732,17.321-10,1,1.732Zm40-40-1-1.732,17.321-10,1,1.732ZM40,111v-2H60v2Zm60-60V49h20v2ZM20.679,106l1-1.732,17.321,10L38,116Zm80-80,1-1.732,17.321,10L118,36ZM4.134,101.84l1.732-1,10,17.321-1.732,1Zm100-100,1.732-1,10,17.321-1.732,1ZM81.84,95.866l-1-1.732,17.321-10,1,1.732ZM60,91V89H80v2ZM40.679,86l1-1.732L59,94.268,58,96ZM24.134,81.84l1.732-1,10,17.321-1.732,1ZM9,80h2v20H9Zm-3.134-.84-1.732-1,10-17.321,1.732,1ZM80,71V69h20v2ZM60.679,66l1-1.732L79,74.268,78,76ZM44.134,61.84l1.732-1,10,17.321-1.732,1ZM29,60h2V80H29Zm-3.134-.84-1.732-1,10-17.321,1.732,1ZM1.84,55.866l-1-1.732,17.321-10,1,1.732ZM80.679,46l1-1.732L99,54.268,98,56ZM64.134,41.84l1.732-1,10,17.321-1.732,1ZM49,40h2V60H49Zm-3.134-.84-1.732-1,10-17.321,1.732,1ZM21.84,35.866l-1-1.732,17.321-10,1,1.732ZM0,31V29H20v2Zm84.134-9.16,1.732-1,10,17.321-1.732,1ZM69,20h2V40H69Zm-3.134-.84-1.732-1L74.134.84l1.732,1ZM41.84,15.866l-1-1.732,17.321-10,1,1.732ZM20,11V9H40v2ZM.679,6l1-1.732L19,14.268,18,16ZM89,0h2V20H89Z" transform="translate(127 1692)" fill="#f7f7f7" fill-rule="evenodd"/></g><g transform="translate(0 -1184)"><path d="M9,0h2V20H9ZM34.134.84l1.732,1-10,17.321-1.732-1Zm-20,20,1.732,1-10,17.321-1.732-1ZM58.16,4.134l1,1.732-17.321,10-1-1.732Zm-40,40,1,1.732-17.321,10-1-1.732ZM80,9v2H60V9ZM20,69v2H0V69ZM99.321,14l-1,1.732L81,5.732,82,4Zm-80,80-1,1.732L1,85.732,2,84Zm96.546-75.84-1.732,1-10-17.321,1.732-1Zm-100,100-1.732,1-10-17.321,1.732-1ZM38.16,24.134l1,1.732-17.321,10-1-1.732ZM60,29v2H40V29Zm19.321,5-1,1.732L61,25.732,62,24Zm16.546,4.16-1.732,1-10-17.321,1.732-1ZM111,40h-2V20h2Zm3.134.84,1.732,1-10,17.321-1.732-1ZM40,49v2H20V49Zm19.321,5-1,1.732L41,45.732,42,44Zm16.546,4.16-1.732,1-10-17.321,1.732-1ZM91,60H89V40h2Zm3.134.84,1.732,1-10,17.321-1.732-1Zm24.026,3.294,1,1.732-17.321,10-1-1.732ZM39.321,74l-1,1.732L21,65.732,22,64Zm16.546,4.16-1.732,1-10-17.321,1.732-1ZM71,80H69V60h2Zm3.134.84,1.732,1-10,17.321-1.732-1ZM98.16,84.134l1,1.732-17.321,10-1-1.732ZM120,89v2H100V89ZM35.866,98.16l-1.732,1-10-17.321,1.732-1ZM51,100H49V80h2Zm3.134.84,1.732,1-10,17.321-1.732-1Zm24.026,3.294,1,1.732-17.321,10-1-1.732ZM100,109v2H80v-2Zm19.321,5-1,1.732-17.321-10L102,104ZM31,120H29V100h2Z" transform="translate(0 1692)" fill="#f7f7f7" fill-rule="evenodd"/><path d="M111,0h-2V20h2ZM85.866.84l-1.732,1,10,17.321,1.732-1Zm20,20-1.732,1,10,17.321,1.732-1ZM61.84,4.134l-1,1.732,17.321,10,1-1.732Zm40,40-1,1.732,17.321,10,1-1.732ZM40,9v2H60V9Zm60,60v2h20V69ZM20.679,14l1,1.732L39,5.732,38,4Zm80,80,1,1.732,17.321-10L118,84ZM4.134,18.16l1.732,1,10-17.321-1.732-1Zm100,100,1.732,1,10-17.321-1.732-1ZM81.84,24.134l-1,1.732,17.321,10,1-1.732ZM60,29v2H80V29ZM40.679,34l1,1.732L59,25.732,58,24ZM24.134,38.16l1.732,1,10-17.321-1.732-1ZM9,40h2V20H9Zm-3.134.84-1.732,1,10,17.321,1.732-1ZM80,49v2h20V49ZM60.679,54l1,1.732L79,45.732,78,44ZM44.134,58.16l1.732,1,10-17.321-1.732-1ZM29,60h2V40H29Zm-3.134.84-1.732,1,10,17.321,1.732-1ZM1.84,64.134l-1,1.732,17.321,10,1-1.732ZM80.679,74l1,1.732L99,65.732,98,64ZM64.134,78.16l1.732,1,10-17.321-1.732-1ZM49,80h2V60H49Zm-3.134.84-1.732,1,10,17.321,1.732-1ZM21.84,84.134l-1,1.732,17.321,10,1-1.732ZM0,89v2H20V89Zm84.134,9.16,1.732,1,10-17.321-1.732-1ZM69,100h2V80H69Zm-3.134.84-1.732,1,10,17.321,1.732-1ZM41.84,104.134l-1,1.732,17.321,10,1-1.732ZM20,109v2H40v-2ZM.679,114l1,1.732,17.321-10L18,104ZM89,120h2V100H89Z" transform="translate(127 1819)" fill="#f7f7f7" fill-rule="evenodd"/><path d="M9,120h2V100H9Zm25.134-.84,1.732-1-10-17.321-1.732,1Zm-20-20,1.732-1-10-17.321-1.732,1ZM58.16,115.866l1-1.732-17.321-10-1,1.732Zm-40-40,1-1.732-17.321-10-1,1.732ZM80,111v-2H60v2ZM20,51V49H0v2Zm79.321,55-1-1.732L81,114.268,82,116Zm-80-80-1-1.732L1,34.268,2,36Zm96.546,75.84-1.732-1-10,17.321,1.732,1Zm-100-100-1.732-1-10,17.321,1.732,1ZM38.16,95.866l1-1.732-17.321-10-1,1.732ZM60,91V89H40v2Zm19.321-5-1-1.732L61,94.268,62,96Zm16.546-4.16-1.732-1-10,17.321,1.732,1ZM111,80h-2v20h2Zm3.134-.84,1.732-1-10-17.321-1.732,1ZM40,71V69H20v2Zm19.321-5-1-1.732L41,74.268,42,76Zm16.546-4.16-1.732-1-10,17.321,1.732,1ZM91,60H89V80h2Zm3.134-.84,1.732-1-10-17.321-1.732,1Zm24.026-3.294,1-1.732-17.321-10-1,1.732ZM39.321,46l-1-1.732L21,54.268,22,56Zm16.546-4.16-1.732-1-10,17.321,1.732,1ZM71,40H69V60h2Zm3.134-.84,1.732-1-10-17.321-1.732,1ZM98.16,35.866l1-1.732-17.321-10-1,1.732ZM120,31V29H100v2ZM35.866,21.84l-1.732-1-10,17.321,1.732,1ZM51,20H49V40h2Zm3.134-.84,1.732-1L45.866.84l-1.732,1ZM78.16,15.866l1-1.732-17.321-10-1,1.732ZM100,11V9H80v2Zm19.321-5-1-1.732L101,14.268,102,16ZM31,0H29V20h2Z" transform="translate(0 1819)" fill="#f7f7f7" fill-rule="evenodd"/><path d="M111,120h-2V100h2Zm-25.134-.84-1.732-1,10-17.321,1.732,1Zm20-20-1.732-1,10-17.321,1.732,1ZM61.84,115.866l-1-1.732,17.321-10,1,1.732Zm40-40-1-1.732,17.321-10,1,1.732ZM40,111v-2H60v2Zm60-60V49h20v2ZM20.679,106l1-1.732,17.321,10L38,116Zm80-80,1-1.732,17.321,10L118,36ZM4.134,101.84l1.732-1,10,17.321-1.732,1Zm100-100,1.732-1,10,17.321-1.732,1ZM81.84,95.866l-1-1.732,17.321-10,1,1.732ZM60,91V89H80v2ZM40.679,86l1-1.732L59,94.268,58,96ZM24.134,81.84l1.732-1,10,17.321-1.732,1ZM9,80h2v20H9Zm-3.134-.84-1.732-1,10-17.321,1.732,1ZM80,71V69h20v2ZM60.679,66l1-1.732L79,74.268,78,76ZM44.134,61.84l1.732-1,10,17.321-1.732,1ZM29,60h2V80H29Zm-3.134-.84-1.732-1,10-17.321,1.732,1ZM1.84,55.866l-1-1.732,17.321-10,1,1.732ZM80.679,46l1-1.732L99,54.268,98,56ZM64.134,41.84l1.732-1,10,17.321-1.732,1ZM49,40h2V60H49Zm-3.134-.84-1.732-1,10-17.321,1.732,1ZM21.84,35.866l-1-1.732,17.321-10,1,1.732ZM0,31V29H20v2Zm84.134-9.16,1.732-1,10,17.321-1.732,1ZM69,20h2V40H69Zm-3.134-.84-1.732-1L74.134.84l1.732,1ZM41.84,15.866l-1-1.732,17.321-10,1,1.732ZM20,11V9H40v2ZM.679,6l1-1.732L19,14.268,18,16ZM89,0h2V20H89Z" transform="translate(127 1692)" fill="#f7f7f7" fill-rule="evenodd"/></g><g transform="translate(254 -1184)"><path d="M9,0h2V20H9ZM34.134.84l1.732,1-10,17.321-1.732-1Zm-20,20,1.732,1-10,17.321-1.732-1ZM58.16,4.134l1,1.732-17.321,10-1-1.732Zm-40,40,1,1.732-17.321,10-1-1.732ZM80,9v2H60V9ZM20,69v2H0V69ZM99.321,14l-1,1.732L81,5.732,82,4Zm-80,80-1,1.732L1,85.732,2,84Zm96.546-75.84-1.732,1-10-17.321,1.732-1Zm-100,100-1.732,1-10-17.321,1.732-1ZM38.16,24.134l1,1.732-17.321,10-1-1.732ZM60,29v2H40V29Zm19.321,5-1,1.732L61,25.732,62,24Zm16.546,4.16-1.732,1-10-17.321,1.732-1ZM111,40h-2V20h2Zm3.134.84,1.732,1-10,17.321-1.732-1ZM40,49v2H20V49Zm19.321,5-1,1.732L41,45.732,42,44Zm16.546,4.16-1.732,1-10-17.321,1.732-1ZM91,60H89V40h2Zm3.134.84,1.732,1-10,17.321-1.732-1Zm24.026,3.294,1,1.732-17.321,10-1-1.732ZM39.321,74l-1,1.732L21,65.732,22,64Zm16.546,4.16-1.732,1-10-17.321,1.732-1ZM71,80H69V60h2Zm3.134.84,1.732,1-10,17.321-1.732-1ZM98.16,84.134l1,1.732-17.321,10-1-1.732ZM120,89v2H100V89ZM35.866,98.16l-1.732,1-10-17.321,1.732-1ZM51,100H49V80h2Zm3.134.84,1.732,1-10,17.321-1.732-1Zm24.026,3.294,1,1.732-17.321,10-1-1.732ZM100,109v2H80v-2Zm19.321,5-1,1.732-17.321-10L102,104ZM31,120H29V100h2Z" transform="translate(0 1692)" fill="#f7f7f7" fill-rule="evenodd"/><path d="M111,0h-2V20h2ZM85.866.84l-1.732,1,10,17.321,1.732-1Zm20,20-1.732,1,10,17.321,1.732-1ZM61.84,4.134l-1,1.732,17.321,10,1-1.732Zm40,40-1,1.732,17.321,10,1-1.732ZM40,9v2H60V9Zm60,60v2h20V69ZM20.679,14l1,1.732L39,5.732,38,4Zm80,80,1,1.732,17.321-10L118,84ZM4.134,18.16l1.732,1,10-17.321-1.732-1Zm100,100,1.732,1,10-17.321-1.732-1ZM81.84,24.134l-1,1.732,17.321,10,1-1.732ZM60,29v2H80V29ZM40.679,34l1,1.732L59,25.732,58,24ZM24.134,38.16l1.732,1,10-17.321-1.732-1ZM9,40h2V20H9Zm-3.134.84-1.732,1,10,17.321,1.732-1ZM80,49v2h20V49ZM60.679,54l1,1.732L79,45.732,78,44ZM44.134,58.16l1.732,1,10-17.321-1.732-1ZM29,60h2V40H29Zm-3.134.84-1.732,1,10,17.321,1.732-1ZM1.84,64.134l-1,1.732,17.321,10,1-1.732ZM80.679,74l1,1.732L99,65.732,98,64ZM64.134,78.16l1.732,1,10-17.321-1.732-1ZM49,80h2V60H49Zm-3.134.84-1.732,1,10,17.321,1.732-1ZM21.84,84.134l-1,1.732,17.321,10,1-1.732ZM0,89v2H20V89Zm84.134,9.16,1.732,1,10-17.321-1.732-1ZM69,100h2V80H69Zm-3.134.84-1.732,1,10,17.321,1.732-1ZM41.84,104.134l-1,1.732,17.321,10,1-1.732ZM20,109v2H40v-2ZM.679,114l1,1.732,17.321-10L18,104ZM89,120h2V100H89Z" transform="translate(127 1819)" fill="#f7f7f7" fill-rule="evenodd"/><path d="M9,120h2V100H9Zm25.134-.84,1.732-1-10-17.321-1.732,1Zm-20-20,1.732-1-10-17.321-1.732,1ZM58.16,115.866l1-1.732-17.321-10-1,1.732Zm-40-40,1-1.732-17.321-10-1,1.732ZM80,111v-2H60v2ZM20,51V49H0v2Zm79.321,55-1-1.732L81,114.268,82,116Zm-80-80-1-1.732L1,34.268,2,36Zm96.546,75.84-1.732-1-10,17.321,1.732,1Zm-100-100-1.732-1-10,17.321,1.732,1ZM38.16,95.866l1-1.732-17.321-10-1,1.732ZM60,91V89H40v2Zm19.321-5-1-1.732L61,94.268,62,96Zm16.546-4.16-1.732-1-10,17.321,1.732,1ZM111,80h-2v20h2Zm3.134-.84,1.732-1-10-17.321-1.732,1ZM40,71V69H20v2Zm19.321-5-1-1.732L41,74.268,42,76Zm16.546-4.16-1.732-1-10,17.321,1.732,1ZM91,60H89V80h2Zm3.134-.84,1.732-1-10-17.321-1.732,1Zm24.026-3.294,1-1.732-17.321-10-1,1.732ZM39.321,46l-1-1.732L21,54.268,22,56Zm16.546-4.16-1.732-1-10,17.321,1.732,1ZM71,40H69V60h2Zm3.134-.84,1.732-1-10-17.321-1.732,1ZM98.16,35.866l1-1.732-17.321-10-1,1.732ZM120,31V29H100v2ZM35.866,21.84l-1.732-1-10,17.321,1.732,1ZM51,20H49V40h2Zm3.134-.84,1.732-1L45.866.84l-1.732,1ZM78.16,15.866l1-1.732-17.321-10-1,1.732ZM100,11V9H80v2Zm19.321-5-1-1.732L101,14.268,102,16ZM31,0H29V20h2Z" transform="translate(0 1819)" fill="#f7f7f7" fill-rule="evenodd"/><path d="M111,120h-2V100h2Zm-25.134-.84-1.732-1,10-17.321,1.732,1Zm20-20-1.732-1,10-17.321,1.732,1ZM61.84,115.866l-1-1.732,17.321-10,1,1.732Zm40-40-1-1.732,17.321-10,1,1.732ZM40,111v-2H60v2Zm60-60V49h20v2ZM20.679,106l1-1.732,17.321,10L38,116Zm80-80,1-1.732,17.321,10L118,36ZM4.134,101.84l1.732-1,10,17.321-1.732,1Zm100-100,1.732-1,10,17.321-1.732,1ZM81.84,95.866l-1-1.732,17.321-10,1,1.732ZM60,91V89H80v2ZM40.679,86l1-1.732L59,94.268,58,96ZM24.134,81.84l1.732-1,10,17.321-1.732,1ZM9,80h2v20H9Zm-3.134-.84-1.732-1,10-17.321,1.732,1ZM80,71V69h20v2ZM60.679,66l1-1.732L79,74.268,78,76ZM44.134,61.84l1.732-1,10,17.321-1.732,1ZM29,60h2V80H29Zm-3.134-.84-1.732-1,10-17.321,1.732,1ZM1.84,55.866l-1-1.732,17.321-10,1,1.732ZM80.679,46l1-1.732L99,54.268,98,56ZM64.134,41.84l1.732-1,10,17.321-1.732,1ZM49,40h2V60H49Zm-3.134-.84-1.732-1,10-17.321,1.732,1ZM21.84,35.866l-1-1.732,17.321-10,1,1.732ZM0,31V29H20v2Zm84.134-9.16,1.732-1,10,17.321-1.732,1ZM69,20h2V40H69Zm-3.134-.84-1.732-1L74.134.84l1.732,1ZM41.84,15.866l-1-1.732,17.321-10,1,1.732ZM20,11V9H40v2ZM.679,6l1-1.732L19,14.268,18,16ZM89,0h2V20H89Z" transform="translate(127 1692)" fill="#f7f7f7" fill-rule="evenodd"/></g><g transform="translate(508 -1184)"><path d="M9,0h2V20H9ZM34.134.84l1.732,1-10,17.321-1.732-1Zm-20,20,1.732,1-10,17.321-1.732-1ZM58.16,4.134l1,1.732-17.321,10-1-1.732Zm-40,40,1,1.732-17.321,10-1-1.732ZM80,9v2H60V9ZM20,69v2H0V69ZM99.321,14l-1,1.732L81,5.732,82,4Zm-80,80-1,1.732L1,85.732,2,84Zm96.546-75.84-1.732,1-10-17.321,1.732-1Zm-100,100-1.732,1-10-17.321,1.732-1ZM38.16,24.134l1,1.732-17.321,10-1-1.732ZM60,29v2H40V29Zm19.321,5-1,1.732L61,25.732,62,24Zm16.546,4.16-1.732,1-10-17.321,1.732-1ZM111,40h-2V20h2Zm3.134.84,1.732,1-10,17.321-1.732-1ZM40,49v2H20V49Zm19.321,5-1,1.732L41,45.732,42,44Zm16.546,4.16-1.732,1-10-17.321,1.732-1ZM91,60H89V40h2Zm3.134.84,1.732,1-10,17.321-1.732-1Zm24.026,3.294,1,1.732-17.321,10-1-1.732ZM39.321,74l-1,1.732L21,65.732,22,64Zm16.546,4.16-1.732,1-10-17.321,1.732-1ZM71,80H69V60h2Zm3.134.84,1.732,1-10,17.321-1.732-1ZM98.16,84.134l1,1.732-17.321,10-1-1.732ZM120,89v2H100V89ZM35.866,98.16l-1.732,1-10-17.321,1.732-1ZM51,100H49V80h2Zm3.134.84,1.732,1-10,17.321-1.732-1Zm24.026,3.294,1,1.732-17.321,10-1-1.732ZM100,109v2H80v-2Zm19.321,5-1,1.732-17.321-10L102,104ZM31,120H29V100h2Z" transform="translate(0 1692)" fill="#f7f7f7" fill-rule="evenodd"/><path d="M111,0h-2V20h2ZM85.866.84l-1.732,1,10,17.321,1.732-1Zm20,20-1.732,1,10,17.321,1.732-1ZM61.84,4.134l-1,1.732,17.321,10,1-1.732Zm40,40-1,1.732,17.321,10,1-1.732ZM40,9v2H60V9Zm60,60v2h20V69ZM20.679,14l1,1.732L39,5.732,38,4Zm80,80,1,1.732,17.321-10L118,84ZM4.134,18.16l1.732,1,10-17.321-1.732-1Zm100,100,1.732,1,10-17.321-1.732-1ZM81.84,24.134l-1,1.732,17.321,10,1-1.732ZM60,29v2H80V29ZM40.679,34l1,1.732L59,25.732,58,24ZM24.134,38.16l1.732,1,10-17.321-1.732-1ZM9,40h2V20H9Zm-3.134.84-1.732,1,10,17.321,1.732-1ZM80,49v2h20V49ZM60.679,54l1,1.732L79,45.732,78,44ZM44.134,58.16l1.732,1,10-17.321-1.732-1ZM29,60h2V40H29Zm-3.134.84-1.732,1,10,17.321,1.732-1ZM1.84,64.134l-1,1.732,17.321,10,1-1.732ZM80.679,74l1,1.732L99,65.732,98,64ZM64.134,78.16l1.732,1,10-17.321-1.732-1ZM49,80h2V60H49Zm-3.134.84-1.732,1,10,17.321,1.732-1ZM21.84,84.134l-1,1.732,17.321,10,1-1.732ZM0,89v2H20V89Zm84.134,9.16,1.732,1,10-17.321-1.732-1ZM69,100h2V80H69Zm-3.134.84-1.732,1,10,17.321,1.732-1ZM41.84,104.134l-1,1.732,17.321,10,1-1.732ZM20,109v2H40v-2ZM.679,114l1,1.732,17.321-10L18,104ZM89,120h2V100H89Z" transform="translate(127 1819)" fill="#f7f7f7" fill-rule="evenodd"/><path d="M9,120h2V100H9Zm25.134-.84,1.732-1-10-17.321-1.732,1Zm-20-20,1.732-1-10-17.321-1.732,1ZM58.16,115.866l1-1.732-17.321-10-1,1.732Zm-40-40,1-1.732-17.321-10-1,1.732ZM80,111v-2H60v2ZM20,51V49H0v2Zm79.321,55-1-1.732L81,114.268,82,116Zm-80-80-1-1.732L1,34.268,2,36Zm96.546,75.84-1.732-1-10,17.321,1.732,1Zm-100-100-1.732-1-10,17.321,1.732,1ZM38.16,95.866l1-1.732-17.321-10-1,1.732ZM60,91V89H40v2Zm19.321-5-1-1.732L61,94.268,62,96Zm16.546-4.16-1.732-1-10,17.321,1.732,1ZM111,80h-2v20h2Zm3.134-.84,1.732-1-10-17.321-1.732,1ZM40,71V69H20v2Zm19.321-5-1-1.732L41,74.268,42,76Zm16.546-4.16-1.732-1-10,17.321,1.732,1ZM91,60H89V80h2Zm3.134-.84,1.732-1-10-17.321-1.732,1Zm24.026-3.294,1-1.732-17.321-10-1,1.732ZM39.321,46l-1-1.732L21,54.268,22,56Zm16.546-4.16-1.732-1-10,17.321,1.732,1ZM71,40H69V60h2Zm3.134-.84,1.732-1-10-17.321-1.732,1ZM98.16,35.866l1-1.732-17.321-10-1,1.732ZM120,31V29H100v2ZM35.866,21.84l-1.732-1-10,17.321,1.732,1ZM51,20H49V40h2Zm3.134-.84,1.732-1L45.866.84l-1.732,1ZM78.16,15.866l1-1.732-17.321-10-1,1.732ZM100,11V9H80v2Zm19.321-5-1-1.732L101,14.268,102,16ZM31,0H29V20h2Z" transform="translate(0 1819)" fill="#f7f7f7" fill-rule="evenodd"/><path d="M111,120h-2V100h2Zm-25.134-.84-1.732-1,10-17.321,1.732,1Zm20-20-1.732-1,10-17.321,1.732,1ZM61.84,115.866l-1-1.732,17.321-10,1,1.732Zm40-40-1-1.732,17.321-10,1,1.732ZM40,111v-2H60v2Zm60-60V49h20v2ZM20.679,106l1-1.732,17.321,10L38,116Zm80-80,1-1.732,17.321,10L118,36ZM4.134,101.84l1.732-1,10,17.321-1.732,1Zm100-100,1.732-1,10,17.321-1.732,1ZM81.84,95.866l-1-1.732,17.321-10,1,1.732ZM60,91V89H80v2ZM40.679,86l1-1.732L59,94.268,58,96ZM24.134,81.84l1.732-1,10,17.321-1.732,1ZM9,80h2v20H9Zm-3.134-.84-1.732-1,10-17.321,1.732,1ZM80,71V69h20v2ZM60.679,66l1-1.732L79,74.268,78,76ZM44.134,61.84l1.732-1,10,17.321-1.732,1ZM29,60h2V80H29Zm-3.134-.84-1.732-1,10-17.321,1.732,1ZM1.84,55.866l-1-1.732,17.321-10,1,1.732ZM80.679,46l1-1.732L99,54.268,98,56ZM64.134,41.84l1.732-1,10,17.321-1.732,1ZM49,40h2V60H49Zm-3.134-.84-1.732-1,10-17.321,1.732,1ZM21.84,35.866l-1-1.732,17.321-10,1,1.732ZM0,31V29H20v2Zm84.134-9.16,1.732-1,10,17.321-1.732,1ZM69,20h2V40H69Zm-3.134-.84-1.732-1L74.134.84l1.732,1ZM41.84,15.866l-1-1.732,17.321-10,1,1.732ZM20,11V9H40v2ZM.679,6l1-1.732L19,14.268,18,16ZM89,0h2V20H89Z" transform="translate(127 1692)" fill="#f7f7f7" fill-rule="evenodd"/></g><g transform="translate(762 -1184)"><path d="M9,0h2V20H9ZM34.134.84l1.732,1-10,17.321-1.732-1Zm-20,20,1.732,1-10,17.321-1.732-1ZM58.16,4.134l1,1.732-17.321,10-1-1.732Zm-40,40,1,1.732-17.321,10-1-1.732ZM80,9v2H60V9ZM20,69v2H0V69ZM99.321,14l-1,1.732L81,5.732,82,4Zm-80,80-1,1.732L1,85.732,2,84Zm96.546-75.84-1.732,1-10-17.321,1.732-1Zm-100,100-1.732,1-10-17.321,1.732-1ZM38.16,24.134l1,1.732-17.321,10-1-1.732ZM60,29v2H40V29Zm19.321,5-1,1.732L61,25.732,62,24Zm16.546,4.16-1.732,1-10-17.321,1.732-1ZM111,40h-2V20h2Zm3.134.84,1.732,1-10,17.321-1.732-1ZM40,49v2H20V49Zm19.321,5-1,1.732L41,45.732,42,44Zm16.546,4.16-1.732,1-10-17.321,1.732-1ZM91,60H89V40h2Zm3.134.84,1.732,1-10,17.321-1.732-1Zm24.026,3.294,1,1.732-17.321,10-1-1.732ZM39.321,74l-1,1.732L21,65.732,22,64Zm16.546,4.16-1.732,1-10-17.321,1.732-1ZM71,80H69V60h2Zm3.134.84,1.732,1-10,17.321-1.732-1ZM98.16,84.134l1,1.732-17.321,10-1-1.732ZM120,89v2H100V89ZM35.866,98.16l-1.732,1-10-17.321,1.732-1ZM51,100H49V80h2Zm3.134.84,1.732,1-10,17.321-1.732-1Zm24.026,3.294,1,1.732-17.321,10-1-1.732ZM100,109v2H80v-2Zm19.321,5-1,1.732-17.321-10L102,104ZM31,120H29V100h2Z" transform="translate(0 1692)" fill="#f7f7f7" fill-rule="evenodd"/><path d="M111,0h-2V20h2ZM85.866.84l-1.732,1,10,17.321,1.732-1Zm20,20-1.732,1,10,17.321,1.732-1ZM61.84,4.134l-1,1.732,17.321,10,1-1.732Zm40,40-1,1.732,17.321,10,1-1.732ZM40,9v2H60V9Zm60,60v2h20V69ZM20.679,14l1,1.732L39,5.732,38,4Zm80,80,1,1.732,17.321-10L118,84ZM4.134,18.16l1.732,1,10-17.321-1.732-1Zm100,100,1.732,1,10-17.321-1.732-1ZM81.84,24.134l-1,1.732,17.321,10,1-1.732ZM60,29v2H80V29ZM40.679,34l1,1.732L59,25.732,58,24ZM24.134,38.16l1.732,1,10-17.321-1.732-1ZM9,40h2V20H9Zm-3.134.84-1.732,1,10,17.321,1.732-1ZM80,49v2h20V49ZM60.679,54l1,1.732L79,45.732,78,44ZM44.134,58.16l1.732,1,10-17.321-1.732-1ZM29,60h2V40H29Zm-3.134.84-1.732,1,10,17.321,1.732-1ZM1.84,64.134l-1,1.732,17.321,10,1-1.732ZM80.679,74l1,1.732L99,65.732,98,64ZM64.134,78.16l1.732,1,10-17.321-1.732-1ZM49,80h2V60H49Zm-3.134.84-1.732,1,10,17.321,1.732-1ZM21.84,84.134l-1,1.732,17.321,10,1-1.732ZM0,89v2H20V89Zm84.134,9.16,1.732,1,10-17.321-1.732-1ZM69,100h2V80H69Zm-3.134.84-1.732,1,10,17.321,1.732-1ZM41.84,104.134l-1,1.732,17.321,10,1-1.732ZM20,109v2H40v-2ZM.679,114l1,1.732,17.321-10L18,104ZM89,120h2V100H89Z" transform="translate(127 1819)" fill="#f7f7f7" fill-rule="evenodd"/><path d="M9,120h2V100H9Zm25.134-.84,1.732-1-10-17.321-1.732,1Zm-20-20,1.732-1-10-17.321-1.732,1ZM58.16,115.866l1-1.732-17.321-10-1,1.732Zm-40-40,1-1.732-17.321-10-1,1.732ZM80,111v-2H60v2ZM20,51V49H0v2Zm79.321,55-1-1.732L81,114.268,82,116Zm-80-80-1-1.732L1,34.268,2,36Zm96.546,75.84-1.732-1-10,17.321,1.732,1Zm-100-100-1.732-1-10,17.321,1.732,1ZM38.16,95.866l1-1.732-17.321-10-1,1.732ZM60,91V89H40v2Zm19.321-5-1-1.732L61,94.268,62,96Zm16.546-4.16-1.732-1-10,17.321,1.732,1ZM111,80h-2v20h2Zm3.134-.84,1.732-1-10-17.321-1.732,1ZM40,71V69H20v2Zm19.321-5-1-1.732L41,74.268,42,76Zm16.546-4.16-1.732-1-10,17.321,1.732,1ZM91,60H89V80h2Zm3.134-.84,1.732-1-10-17.321-1.732,1Zm24.026-3.294,1-1.732-17.321-10-1,1.732ZM39.321,46l-1-1.732L21,54.268,22,56Zm16.546-4.16-1.732-1-10,17.321,1.732,1ZM71,40H69V60h2Zm3.134-.84,1.732-1-10-17.321-1.732,1ZM98.16,35.866l1-1.732-17.321-10-1,1.732ZM120,31V29H100v2ZM35.866,21.84l-1.732-1-10,17.321,1.732,1ZM51,20H49V40h2Zm3.134-.84,1.732-1L45.866.84l-1.732,1ZM78.16,15.866l1-1.732-17.321-10-1,1.732ZM100,11V9H80v2Zm19.321-5-1-1.732L101,14.268,102,16ZM31,0H29V20h2Z" transform="translate(0 1819)" fill="#f7f7f7" fill-rule="evenodd"/><path d="M111,120h-2V100h2Zm-25.134-.84-1.732-1,10-17.321,1.732,1Zm20-20-1.732-1,10-17.321,1.732,1ZM61.84,115.866l-1-1.732,17.321-10,1,1.732Zm40-40-1-1.732,17.321-10,1,1.732ZM40,111v-2H60v2Zm60-60V49h20v2ZM20.679,106l1-1.732,17.321,10L38,116Zm80-80,1-1.732,17.321,10L118,36ZM4.134,101.84l1.732-1,10,17.321-1.732,1Zm100-100,1.732-1,10,17.321-1.732,1ZM81.84,95.866l-1-1.732,17.321-10,1,1.732ZM60,91V89H80v2ZM40.679,86l1-1.732L59,94.268,58,96ZM24.134,81.84l1.732-1,10,17.321-1.732,1ZM9,80h2v20H9Zm-3.134-.84-1.732-1,10-17.321,1.732,1ZM80,71V69h20v2ZM60.679,66l1-1.732L79,74.268,78,76ZM44.134,61.84l1.732-1,10,17.321-1.732,1ZM29,60h2V80H29Zm-3.134-.84-1.732-1,10-17.321,1.732,1ZM1.84,55.866l-1-1.732,17.321-10,1,1.732ZM80.679,46l1-1.732L99,54.268,98,56ZM64.134,41.84l1.732-1,10,17.321-1.732,1ZM49,40h2V60H49Zm-3.134-.84-1.732-1,10-17.321,1.732,1ZM21.84,35.866l-1-1.732,17.321-10,1,1.732ZM0,31V29H20v2Zm84.134-9.16,1.732-1,10,17.321-1.732,1ZM69,20h2V40H69Zm-3.134-.84-1.732-1L74.134.84l1.732,1ZM41.84,15.866l-1-1.732,17.321-10,1,1.732ZM20,11V9H40v2ZM.679,6l1-1.732L19,14.268,18,16ZM89,0h2V20H89Z" transform="translate(127 1692)" fill="#f7f7f7" fill-rule="evenodd"/></g><g transform="translate(1016 -1184)"><path d="M9,0h2V20H9ZM34.134.84l1.732,1-10,17.321-1.732-1Zm-20,20,1.732,1-10,17.321-1.732-1ZM58.16,4.134l1,1.732-17.321,10-1-1.732Zm-40,40,1,1.732-17.321,10-1-1.732ZM80,9v2H60V9ZM20,69v2H0V69ZM99.321,14l-1,1.732L81,5.732,82,4Zm-80,80-1,1.732L1,85.732,2,84Zm96.546-75.84-1.732,1-10-17.321,1.732-1Zm-100,100-1.732,1-10-17.321,1.732-1ZM38.16,24.134l1,1.732-17.321,10-1-1.732ZM60,29v2H40V29Zm19.321,5-1,1.732L61,25.732,62,24Zm16.546,4.16-1.732,1-10-17.321,1.732-1ZM111,40h-2V20h2Zm3.134.84,1.732,1-10,17.321-1.732-1ZM40,49v2H20V49Zm19.321,5-1,1.732L41,45.732,42,44Zm16.546,4.16-1.732,1-10-17.321,1.732-1ZM91,60H89V40h2Zm3.134.84,1.732,1-10,17.321-1.732-1Zm24.026,3.294,1,1.732-17.321,10-1-1.732ZM39.321,74l-1,1.732L21,65.732,22,64Zm16.546,4.16-1.732,1-10-17.321,1.732-1ZM71,80H69V60h2Zm3.134.84,1.732,1-10,17.321-1.732-1ZM98.16,84.134l1,1.732-17.321,10-1-1.732ZM120,89v2H100V89ZM35.866,98.16l-1.732,1-10-17.321,1.732-1ZM51,100H49V80h2Zm3.134.84,1.732,1-10,17.321-1.732-1Zm24.026,3.294,1,1.732-17.321,10-1-1.732ZM100,109v2H80v-2Zm19.321,5-1,1.732-17.321-10L102,104ZM31,120H29V100h2Z" transform="translate(0 1692)" fill="#f7f7f7" fill-rule="evenodd"/><path d="M111,0h-2V20h2ZM85.866.84l-1.732,1,10,17.321,1.732-1Zm20,20-1.732,1,10,17.321,1.732-1ZM61.84,4.134l-1,1.732,17.321,10,1-1.732Zm40,40-1,1.732,17.321,10,1-1.732ZM40,9v2H60V9Zm60,60v2h20V69ZM20.679,14l1,1.732L39,5.732,38,4Zm80,80,1,1.732,17.321-10L118,84ZM4.134,18.16l1.732,1,10-17.321-1.732-1Zm100,100,1.732,1,10-17.321-1.732-1ZM81.84,24.134l-1,1.732,17.321,10,1-1.732ZM60,29v2H80V29ZM40.679,34l1,1.732L59,25.732,58,24ZM24.134,38.16l1.732,1,10-17.321-1.732-1ZM9,40h2V20H9Zm-3.134.84-1.732,1,10,17.321,1.732-1ZM80,49v2h20V49ZM60.679,54l1,1.732L79,45.732,78,44ZM44.134,58.16l1.732,1,10-17.321-1.732-1ZM29,60h2V40H29Zm-3.134.84-1.732,1,10,17.321,1.732-1ZM1.84,64.134l-1,1.732,17.321,10,1-1.732ZM80.679,74l1,1.732L99,65.732,98,64ZM64.134,78.16l1.732,1,10-17.321-1.732-1ZM49,80h2V60H49Zm-3.134.84-1.732,1,10,17.321,1.732-1ZM21.84,84.134l-1,1.732,17.321,10,1-1.732ZM0,89v2H20V89Zm84.134,9.16,1.732,1,10-17.321-1.732-1ZM69,100h2V80H69Zm-3.134.84-1.732,1,10,17.321,1.732-1ZM41.84,104.134l-1,1.732,17.321,10,1-1.732ZM20,109v2H40v-2ZM.679,114l1,1.732,17.321-10L18,104ZM89,120h2V100H89Z" transform="translate(127 1819)" fill="#f7f7f7" fill-rule="evenodd"/><path d="M9,120h2V100H9Zm25.134-.84,1.732-1-10-17.321-1.732,1Zm-20-20,1.732-1-10-17.321-1.732,1ZM58.16,115.866l1-1.732-17.321-10-1,1.732Zm-40-40,1-1.732-17.321-10-1,1.732ZM80,111v-2H60v2ZM20,51V49H0v2Zm79.321,55-1-1.732L81,114.268,82,116Zm-80-80-1-1.732L1,34.268,2,36Zm96.546,75.84-1.732-1-10,17.321,1.732,1Zm-100-100-1.732-1-10,17.321,1.732,1ZM38.16,95.866l1-1.732-17.321-10-1,1.732ZM60,91V89H40v2Zm19.321-5-1-1.732L61,94.268,62,96Zm16.546-4.16-1.732-1-10,17.321,1.732,1ZM111,80h-2v20h2Zm3.134-.84,1.732-1-10-17.321-1.732,1ZM40,71V69H20v2Zm19.321-5-1-1.732L41,74.268,42,76Zm16.546-4.16-1.732-1-10,17.321,1.732,1ZM91,60H89V80h2Zm3.134-.84,1.732-1-10-17.321-1.732,1Zm24.026-3.294,1-1.732-17.321-10-1,1.732ZM39.321,46l-1-1.732L21,54.268,22,56Zm16.546-4.16-1.732-1-10,17.321,1.732,1ZM71,40H69V60h2Zm3.134-.84,1.732-1-10-17.321-1.732,1ZM98.16,35.866l1-1.732-17.321-10-1,1.732ZM120,31V29H100v2ZM35.866,21.84l-1.732-1-10,17.321,1.732,1ZM51,20H49V40h2Zm3.134-.84,1.732-1L45.866.84l-1.732,1ZM78.16,15.866l1-1.732-17.321-10-1,1.732ZM100,11V9H80v2Zm19.321-5-1-1.732L101,14.268,102,16ZM31,0H29V20h2Z" transform="translate(0 1819)" fill="#f7f7f7" fill-rule="evenodd"/><path d="M111,120h-2V100h2Zm-25.134-.84-1.732-1,10-17.321,1.732,1Zm20-20-1.732-1,10-17.321,1.732,1ZM61.84,115.866l-1-1.732,17.321-10,1,1.732Zm40-40-1-1.732,17.321-10,1,1.732ZM40,111v-2H60v2Zm60-60V49h20v2ZM20.679,106l1-1.732,17.321,10L38,116Zm80-80,1-1.732,17.321,10L118,36ZM4.134,101.84l1.732-1,10,17.321-1.732,1Zm100-100,1.732-1,10,17.321-1.732,1ZM81.84,95.866l-1-1.732,17.321-10,1,1.732ZM60,91V89H80v2ZM40.679,86l1-1.732L59,94.268,58,96ZM24.134,81.84l1.732-1,10,17.321-1.732,1ZM9,80h2v20H9Zm-3.134-.84-1.732-1,10-17.321,1.732,1ZM80,71V69h20v2ZM60.679,66l1-1.732L79,74.268,78,76ZM44.134,61.84l1.732-1,10,17.321-1.732,1ZM29,60h2V80H29Zm-3.134-.84-1.732-1,10-17.321,1.732,1ZM1.84,55.866l-1-1.732,17.321-10,1,1.732ZM80.679,46l1-1.732L99,54.268,98,56ZM64.134,41.84l1.732-1,10,17.321-1.732,1ZM49,40h2V60H49Zm-3.134-.84-1.732-1,10-17.321,1.732,1ZM21.84,35.866l-1-1.732,17.321-10,1,1.732ZM0,31V29H20v2Zm84.134-9.16,1.732-1,10,17.321-1.732,1ZM69,20h2V40H69Zm-3.134-.84-1.732-1L74.134.84l1.732,1ZM41.84,15.866l-1-1.732,17.321-10,1,1.732ZM20,11V9H40v2ZM.679,6l1-1.732L19,14.268,18,16ZM89,0h2V20H89Z" transform="translate(127 1692)" fill="#f7f7f7" fill-rule="evenodd"/></g><g transform="translate(1270 -1184)"><path d="M9,0h2V20H9ZM34.134.84l1.732,1-10,17.321-1.732-1Zm-20,20,1.732,1-10,17.321-1.732-1ZM58.16,4.134l1,1.732-17.321,10-1-1.732Zm-40,40,1,1.732-17.321,10-1-1.732ZM80,9v2H60V9ZM20,69v2H0V69ZM99.321,14l-1,1.732L81,5.732,82,4Zm-80,80-1,1.732L1,85.732,2,84Zm96.546-75.84-1.732,1-10-17.321,1.732-1Zm-100,100-1.732,1-10-17.321,1.732-1ZM38.16,24.134l1,1.732-17.321,10-1-1.732ZM60,29v2H40V29Zm19.321,5-1,1.732L61,25.732,62,24Zm16.546,4.16-1.732,1-10-17.321,1.732-1ZM111,40h-2V20h2Zm3.134.84,1.732,1-10,17.321-1.732-1ZM40,49v2H20V49Zm19.321,5-1,1.732L41,45.732,42,44Zm16.546,4.16-1.732,1-10-17.321,1.732-1ZM91,60H89V40h2Zm3.134.84,1.732,1-10,17.321-1.732-1Zm24.026,3.294,1,1.732-17.321,10-1-1.732ZM39.321,74l-1,1.732L21,65.732,22,64Zm16.546,4.16-1.732,1-10-17.321,1.732-1ZM71,80H69V60h2Zm3.134.84,1.732,1-10,17.321-1.732-1ZM98.16,84.134l1,1.732-17.321,10-1-1.732ZM120,89v2H100V89ZM35.866,98.16l-1.732,1-10-17.321,1.732-1ZM51,100H49V80h2Zm3.134.84,1.732,1-10,17.321-1.732-1Zm24.026,3.294,1,1.732-17.321,10-1-1.732ZM100,109v2H80v-2Zm19.321,5-1,1.732-17.321-10L102,104ZM31,120H29V100h2Z" transform="translate(0 1692)" fill="#f7f7f7" fill-rule="evenodd"/><path d="M111,0h-2V20h2ZM85.866.84l-1.732,1,10,17.321,1.732-1Zm20,20-1.732,1,10,17.321,1.732-1ZM61.84,4.134l-1,1.732,17.321,10,1-1.732Zm40,40-1,1.732,17.321,10,1-1.732ZM40,9v2H60V9Zm60,60v2h20V69ZM20.679,14l1,1.732L39,5.732,38,4Zm80,80,1,1.732,17.321-10L118,84ZM4.134,18.16l1.732,1,10-17.321-1.732-1Zm100,100,1.732,1,10-17.321-1.732-1ZM81.84,24.134l-1,1.732,17.321,10,1-1.732ZM60,29v2H80V29ZM40.679,34l1,1.732L59,25.732,58,24ZM24.134,38.16l1.732,1,10-17.321-1.732-1ZM9,40h2V20H9Zm-3.134.84-1.732,1,10,17.321,1.732-1ZM80,49v2h20V49ZM60.679,54l1,1.732L79,45.732,78,44ZM44.134,58.16l1.732,1,10-17.321-1.732-1ZM29,60h2V40H29Zm-3.134.84-1.732,1,10,17.321,1.732-1ZM1.84,64.134l-1,1.732,17.321,10,1-1.732ZM80.679,74l1,1.732L99,65.732,98,64ZM64.134,78.16l1.732,1,10-17.321-1.732-1ZM49,80h2V60H49Zm-3.134.84-1.732,1,10,17.321,1.732-1ZM21.84,84.134l-1,1.732,17.321,10,1-1.732ZM0,89v2H20V89Zm84.134,9.16,1.732,1,10-17.321-1.732-1ZM69,100h2V80H69Zm-3.134.84-1.732,1,10,17.321,1.732-1ZM41.84,104.134l-1,1.732,17.321,10,1-1.732ZM20,109v2H40v-2ZM.679,114l1,1.732,17.321-10L18,104ZM89,120h2V100H89Z" transform="translate(127 1819)" fill="#f7f7f7" fill-rule="evenodd"/><path d="M9,120h2V100H9Zm25.134-.84,1.732-1-10-17.321-1.732,1Zm-20-20,1.732-1-10-17.321-1.732,1ZM58.16,115.866l1-1.732-17.321-10-1,1.732Zm-40-40,1-1.732-17.321-10-1,1.732ZM80,111v-2H60v2ZM20,51V49H0v2Zm79.321,55-1-1.732L81,114.268,82,116Zm-80-80-1-1.732L1,34.268,2,36Zm96.546,75.84-1.732-1-10,17.321,1.732,1Zm-100-100-1.732-1-10,17.321,1.732,1ZM38.16,95.866l1-1.732-17.321-10-1,1.732ZM60,91V89H40v2Zm19.321-5-1-1.732L61,94.268,62,96Zm16.546-4.16-1.732-1-10,17.321,1.732,1ZM111,80h-2v20h2Zm3.134-.84,1.732-1-10-17.321-1.732,1ZM40,71V69H20v2Zm19.321-5-1-1.732L41,74.268,42,76Zm16.546-4.16-1.732-1-10,17.321,1.732,1ZM91,60H89V80h2Zm3.134-.84,1.732-1-10-17.321-1.732,1Zm24.026-3.294,1-1.732-17.321-10-1,1.732ZM39.321,46l-1-1.732L21,54.268,22,56Zm16.546-4.16-1.732-1-10,17.321,1.732,1ZM71,40H69V60h2Zm3.134-.84,1.732-1-10-17.321-1.732,1ZM98.16,35.866l1-1.732-17.321-10-1,1.732ZM120,31V29H100v2ZM35.866,21.84l-1.732-1-10,17.321,1.732,1ZM51,20H49V40h2Zm3.134-.84,1.732-1L45.866.84l-1.732,1ZM78.16,15.866l1-1.732-17.321-10-1,1.732ZM100,11V9H80v2Zm19.321-5-1-1.732L101,14.268,102,16ZM31,0H29V20h2Z" transform="translate(0 1819)" fill="#f7f7f7" fill-rule="evenodd"/><path d="M111,120h-2V100h2Zm-25.134-.84-1.732-1,10-17.321,1.732,1Zm20-20-1.732-1,10-17.321,1.732,1ZM61.84,115.866l-1-1.732,17.321-10,1,1.732Zm40-40-1-1.732,17.321-10,1,1.732ZM40,111v-2H60v2Zm60-60V49h20v2ZM20.679,106l1-1.732,17.321,10L38,116Zm80-80,1-1.732,17.321,10L118,36ZM4.134,101.84l1.732-1,10,17.321-1.732,1Zm100-100,1.732-1,10,17.321-1.732,1ZM81.84,95.866l-1-1.732,17.321-10,1,1.732ZM60,91V89H80v2ZM40.679,86l1-1.732L59,94.268,58,96ZM24.134,81.84l1.732-1,10,17.321-1.732,1ZM9,80h2v20H9Zm-3.134-.84-1.732-1,10-17.321,1.732,1ZM80,71V69h20v2ZM60.679,66l1-1.732L79,74.268,78,76ZM44.134,61.84l1.732-1,10,17.321-1.732,1ZM29,60h2V80H29Zm-3.134-.84-1.732-1,10-17.321,1.732,1ZM1.84,55.866l-1-1.732,17.321-10,1,1.732ZM80.679,46l1-1.732L99,54.268,98,56ZM64.134,41.84l1.732-1,10,17.321-1.732,1ZM49,40h2V60H49Zm-3.134-.84-1.732-1,10-17.321,1.732,1ZM21.84,35.866l-1-1.732,17.321-10,1,1.732ZM0,31V29H20v2Zm84.134-9.16,1.732-1,10,17.321-1.732,1ZM69,20h2V40H69Zm-3.134-.84-1.732-1L74.134.84l1.732,1ZM41.84,15.866l-1-1.732,17.321-10,1,1.732ZM20,11V9H40v2ZM.679,6l1-1.732L19,14.268,18,16ZM89,0h2V20H89Z" transform="translate(127 1692)" fill="#f7f7f7" fill-rule="evenodd"/></g></g></svg>